<svg xmlns="http://www.w3.org/2000/svg" xmlns:xlink="http://www.w3.org/1999/xlink" viewBox="0 0 169.27 184.62">
  <defs>
    <clipPath id="h" clipPathUnits="userSpaceOnUse">
      <use width="100%" height="100%" xlink:href="#a"/>
    </clipPath>
    <clipPath id="j" clipPathUnits="userSpaceOnUse">
      <use width="100%" height="100%" xlink:href="#b"/>
    </clipPath>
    <clipPath id="k" clipPathUnits="userSpaceOnUse">
      <path fill="none" stroke-width=".26" d="M2.79 50.95h39.6V90.2H2.79z"/>
    </clipPath>
    <clipPath id="i" clipPathUnits="userSpaceOnUse">
      <path fill="none" stroke-width=".26" d="M0 1.37h212.47V191.9H0zm2.8 49.58v43.48h44.27V50.95z" class="powerclip"/>
    </clipPath>
    <clipPath id="l" clipPathUnits="userSpaceOnUse">
      <path d="M568.85 564.72l13.2-24.07 27.05-4.96-18.8-20.04 3.6-27.22-24.84 11.68-24.75-11.86 3.42 27.27-18.93 19.88 26.96 5.18z"/>
    </clipPath>
    <clipPath id="n" clipPathUnits="userSpaceOnUse">
      <path d="M568.85 564.72l13.2-24.07 27.05-4.96-18.8-20.04 3.6-27.22-24.84 11.68-24.75-11.86 3.42 27.27-18.93 19.88 26.96 5.18z"/>
    </clipPath>
    <clipPath id="p" clipPathUnits="userSpaceOnUse">
      <path d="M568.85 564.72l13.2-24.07 27.05-4.96-18.8-20.04 3.6-27.22-24.84 11.68-24.75-11.86 3.42 27.27-18.93 19.88 26.96 5.18z"/>
    </clipPath>
    <clipPath id="r" clipPathUnits="userSpaceOnUse">
      <path d="M568.85 564.72l13.2-24.07 27.05-4.96-18.8-20.04 3.6-27.22-24.84 11.68-24.75-11.86 3.42 27.27-18.93 19.88 26.96 5.18z"/>
    </clipPath>
    <clipPath id="d" clipPathUnits="userSpaceOnUse">
      <path fill="none" stroke-width=".26" d="M0 1.37h212.47V191.9H0z" class="powerclip"/>
    </clipPath>
    <clipPath id="e" clipPathUnits="userSpaceOnUse">
      <path fill="none" stroke-width=".26" d="M2.79 50.95h39.6V90.2H2.79z"/>
    </clipPath>
    <clipPath id="f" clipPathUnits="userSpaceOnUse">
      <path fill="none" stroke-width=".26" d="M2.79 50.95h39.6V90.2H2.79z"/>
    </clipPath>
    <clipPath id="t" clipPathUnits="userSpaceOnUse">
      <path fill="none" stroke-width=".26" d="M40.49 4.56h169.27v184.62H40.49z"/>
    </clipPath>
    <linearGradient id="c" x1="0" x2="1" y1="0" y2="0" gradientTransform="scale(80.8992 -80.8992) rotate(-18.46 -16.16 -23.63)" gradientUnits="userSpaceOnUse" spreadMethod="pad">
      <stop offset="0" stop-color="#fff"/>
      <stop offset="1" stop-color="#e2e6ea"/>
    </linearGradient>
    <linearGradient id="m" x1="0" x2="1" y1="0" y2="0" gradientTransform="scale(80.8992 -80.8992) rotate(-18.46 -16.16 -23.63)" gradientUnits="userSpaceOnUse" spreadMethod="pad" xlink:href="#c"/>
    <linearGradient id="o" x1="0" x2="1" y1="0" y2="0" gradientTransform="scale(80.8992 -80.8992) rotate(-18.46 -16.16 -23.63)" gradientUnits="userSpaceOnUse" spreadMethod="pad" xlink:href="#c"/>
    <linearGradient id="q" x1="0" x2="1" y1="0" y2="0" gradientTransform="scale(80.8992 -80.8992) rotate(-18.46 -16.16 -23.63)" gradientUnits="userSpaceOnUse" spreadMethod="pad" xlink:href="#c"/>
    <linearGradient id="s" x1="0" x2="1" y1="0" y2="0" gradientTransform="scale(80.8992 -80.8992) rotate(-18.46 -16.16 -23.63)" gradientUnits="userSpaceOnUse" spreadMethod="pad" xlink:href="#c"/>
    <path id="g" d="M40.48 189.16h163.76v39.93H40.48z"/>
  </defs>
  <g clip-path="url(#h)" transform="translate(-40.49 -4.56)">
    <path id="a" fill="#0b281d" stroke-width=".24" d="M93.75 186.33c-7.04-.76-11.33-1.86-16.64-4.3-2.16-.98-5.77-2.52-8.03-3.4-4.7-1.85-9.76-4.3-11.58-5.61a87.04 87.04 0 01-7.4-6.34c-1.67-1.69-4.3-5.38-5.03-7.06-.5-1.17-.54-1.5-.41-4.38a29.9 29.9 0 011.36-8.2c.69-2.28 1.13-3.13 3.44-6.53 2.4-3.54 3.75-5.1 5.2-6 1.4-.88 1.32-.79 1.09-1.16-.4-.63-.52-2.86.16-2.76.46.07 1 2.34 1.2 2.79.36.89 2.85 2.7 6.27 4.55 5.19 2.81 7.55 3.67 11.14 4.03.87.09 2.11.31 2.77.5 2.57.73 12.31 1.1 15.37.6.73-.13 2.14-.3 3.14-.4a11.2 11.2 0 003.63-.95c5.87-2.58 7.75-3.09 13.78-3.72 1.27-.13 3.17-.34 4.24-.47 4.56-.56 23.21-.74 26.76-.26 2.56.34 9.07 2.59 11.12 3.83 1.02.63 1.47.63 2.03 0 .51-.56 3.5-2.38 6.04-3.69 3.33-1.71 8.68-2.6 15.23-2.54 2.92.04 4.66.16 5.3.38 1.35.47 1.58.41 1.96-.5 1.04-2.47.94-7.24-.22-11.6-.32-1.2-1.67-4.31-1.62-4.36.05-.05 1.46 1.57 1.78 1.65.52.13.66.93 1.12 2.9 1.02 4.38 1.09 8.86.19 11.47-.2.55-.25 1-.14 1 .46 0 4.46 2.15 4.36 2.32-.3.48-.32.9-3.94-.9-.9-.45-1.89-.7-2.11-.7-.23 0-.55-.13-.72-.3-.2-.2-1.71-.34-4.94-.44-7.98-.24-13.12.66-17.43 3.06-3.25 1.8-4.37 2.57-4.46 3.04-.09.45 1.85 1.26 4.19 1.73 1.41.3 5 .97 4.29 1.2-1.37.47-5.99-.48-9.77-2.33a60.62 60.62 0 00-10.35-4.1c-1.75-.48-2.35-.5-13.68-.49-6.52.01-12.56.07-13.42.14-2.84.23-12.19 1.61-13.47 2-.69.2-1.34.35-1.45.32-.1-.02-.47.07-.8.2l-1.51.64c-1.01.42-1.53 1.27-1.3 2.15.07.32 1.04 1.39 2.13 2.37 1.1.99 3.36 3.2 5.03 4.9a81.95 81.95 0 004.48 4.32c.8.66 2.19 1.89 3.09 2.72.9.84 2.48 1.98 3.5 2.54a24.4 24.4 0 012.84 1.79 28.87 28.87 0 006.2 3.56c1.14.49 3.48 1.58 5.2 2.43 1.7.84 3.82 1.85 4.68 2.22.87.38 1.96.92 2.44 1.22a78.38 78.38 0 009.15 4.34l4.12 1.6-.4.1c-1.58.43-6.25-1.34-10.48-3.68-2.83-1.56-3.38-1.77-3.38-1.27 0 .87-5.14 5.37-7.62 6.68-1.91 1-5.83 2.76-7.37 3.29-.87.3-2.39.88-3.39 1.29-4.02 1.64-6.88 2.22-14.54 2.92-3.91.36-6.56.29-12.42-.35zm15.67-.97c6.32-.69 11.9-2.5 20.27-6.63 3.5-1.72 8.83-6.13 8.63-7.16-.08-.44-2.5-1.97-3.13-1.99-.8-.02-11.74-5.4-13.27-6.52a54.44 54.44 0 00-3.5-2.31 33.96 33.96 0 01-4.33-3.35 3636.52 3636.52 0 01-7.7-7.04c-.37-.33-.67-.68-.67-.77 0-.1-.54-.72-1.2-1.37a7.28 7.28 0 01-1.22-1.4c0-.33.52.2.15.2-.6 0-3.54-3.01-3.54-3.66 0-.78-.5-.92-1.74-.48-1.84.65-4.86.93-10.27.95-5.84.03-7.45-.07-10.48-.64a22.67 22.67 0 00-2.9-.4c-.46 0-2.24-.42-3.95-.94a42.32 42.32 0 01-11.14-5.64c-1.25-.9-2.15-1.37-2.6-1.37-.38 0-.69.09-.69.2 0 .1-.43.38-.95.6-1.2.53-2.26 1.8-5.06 6.02-2.44 3.68-3.45 6.24-3.94 9.94a12.52 12.52 0 01-.47 2.35c-.12.23-.22 1.3-.22 2.36 0 2.17.42 3.25 2.5 6.31 1.34 2 6.91 7.27 9.83 9.31a51.38 51.38 0 0011 5.37c.54.16 3.6 1.47 6.79 2.9 5.75 2.59 6.5 2.84 12.83 4.3 1.22.29 3.72.63 5.56.77 1.85.14 3.4.3 3.46.36.26.26 8.85.07 11.95-.27zm67.6-2.45c.17-.07.38-.06.46.02.08.08-.06.14-.32.13-.28-.01-.34-.07-.15-.15zm21.56-9.42c.14-.2.68-1.25 2.66-3.92 3.63-4.92 5.35-9.2 5-12.5-.3-2.87-3.2-8.39-5.84-11.08-1.07-1.1-2.54-2.27-2.22-2.27.25 0 1.58.66 1.5.54-.08-.13-.97-.76-.64-.6.8.41 3.87 3.3 4.9 4.93 4.4 6.93 4.63 10.84 1 17.48a69.56 69.56 0 01-5.47 7.85c-.55.63-1.66.75-1.41.38zm-34.32-28.54a3.36 3.36 0 01-1.45-.36c-.07-.07 1.96-.24 4.51-.2 2.55.04 6-.59 5.18-.04-.43.28-4.73.75-4.99.74zM55.08 131.08c-.52-1.34.35-5.33 2.12-9.79a27.63 27.63 0 001.12-3.13c0-.18.43-1.17.97-2.2.53-1.03.96-2.02.96-2.21 0-.45 2.83-4.76 4.15-6.33.7-.82 1.42-1.4 2.14-1.67.6-.23 1.13-.45 1.17-.48a3.2 3.2 0 00-.54-.98c-.79-1.15-3.49-5.34-2.72-5.34.33 0 3.3 3.91 3.3 4.04 0 .76 3.26 4.2 4.71 4.97.27.14 1.8 1.01 3.4 1.93 3.24 1.87 3 1.77 8.82 3.74 5.09 1.72 7.12 2.06 13.78 2.27 2.73.1 5.72.27 6.65.4 4.68.64 13.79 1.08 14.04.68.07-.12.93-.21 1.91-.2 2.34 0 3.92-.24 4.83-.77.91-.52 4.66-1.85 6.17-2.17 1.1-.24 7.03-2.56 9.81-3.85.8-.36 2.87-1.13 4.6-1.7a35.6 35.6 0 003.86-1.45c.4-.23 1.55-.66 2.55-.95 1-.3 3-1.03 4.47-1.63 3.99-1.65 5.42-2.76 6.46-5 .46-1 .55-1.6.55-3.62 0-2.26-.05-2.5-.81-3.98a47.2 47.2 0 00-5.38-7.58 8.9 8.9 0 00-5.99-2.92c-.85-.06-1.72-.15-1.93-.22-1.18-.36-7.18-.85-10.45-.85-3.73 0-3.8 0-7.56 1.07a53.18 53.18 0 01-6.75 1.45c-1.63.2-4.05.53-5.38.73-3.39.48-11.21.67-15.21.37-5-.39-7.16-.92-12.48-3.09-2.2-.9-2.35-1.01-3.43-2.48-.62-.86-1.4-1.83-1.72-2.16-.64-.65-1.7-3.53-2.22-6.03-.36-1.68-.18-8.33.34-13.02.37-3.37.85-5.19 1.83-6.98.18-.34.55-1.14.82-1.77a15 15 0 013.1-4.18c.44-.43.8-.93.8-1.1 0-.18-.71-.57-1.57-.87a24.36 24.36 0 01-5.84-3.22c-1.43-1.05-3.48-3.35-3.48-3.9 0-.64.47-.72.7-.13.38.94 3.23 3.7 4.67 4.53 3.05 1.74 4.2 2.25 5.99 2.68 1.12.26 2.53.65 3.14.85 3.04 1.03 14.35.93 16.46-.15a4.8 4.8 0 011.26-.48c.17 0 1.38-.7 2.7-1.57 1.3-.86 2.61-1.56 2.9-1.55.5 0 2.4.47 9.22 2.26 3.05.8 3.84.92 7.98 1.1 5 .23 10.69-.11 14.15-.86 2.2-.48 4.72-1.71 6.57-3.2 1.78-1.45 1.82-2.2.1-2.2-.29 0-.64-.11-.77-.24a15.4 15.4 0 00-3.4-1.94c-.17 0-.81.38-1.4.83a6.2 6.2 0 01-2.49 1.11c-.77.16-1.5.37-1.64.48-.32.25-2.37.44-6.67.62-2.9.12-4.17.06-7.06-.36a61.9 61.9 0 01-3.85-.63 26.4 26.4 0 00-2.13-.45c-3.11-.57-7.97-2.31-7.98-2.86 0-.25.64-.23 1.15.03 1.23.62 2.97 1.27 3.93 1.45.6.11 1.96.42 3.02.69a36.02 36.02 0 0011 1.38c6.98 0 10.86-.75 13.02-2.52.89-.73 1.5-.93 1.5-.5 0 .14.52.52 1.15.86.63.34 1.47.82 1.87 1.06.4.24 1.24.5 1.86.59 1.1.14 1.15.11 1.67-.72.48-.78.52-1.08.4-3.2-.11-2-.24-2.55-.86-3.71-.4-.75-.77-1.5-.83-1.67-.09-.25-.28-.22-.85.1-1.05.6-1.69.53-2.52-.3-.67-.66-.72-.83-.58-1.79l.16-1.05-1.28-.74c-.7-.4-1.93-1.25-2.73-1.9-1.55-1.24-2.4-1.7-4.8-2.58a93.26 93.26 0 01-7.04-2.76l-1.43-.67.73-.26c.6-.2.99-.17 2.64.42 5.14 1.81 9.3 3.57 10.05 4.31.21.22.64.55.94.75.3.2.83.59 1.18.86.35.28 1.18.81 1.84 1.19 2.18 1.24 4.96 3.57 4.96 4.15 0 .18.08.32.18.32.61 0 1.64 4.46 1.57 6.83-.07 2.74-2.74 5.67-7.2 7.9a19.3 19.3 0 00-2.16 1.2c-.12.13-.64.23-1.14.23-.5 0-2.08.19-3.52.42-2 .32-4.06.42-8.77.42-6.55 0-8.52-.24-11.6-1.4-.74-.26-2.15-.68-3.15-.91l-3.34-.8-1.53-.39-1.5 1.02c-1.82 1.23-5.23 2.76-6.84 3.06-2.47.47-5.2.54-9.77.28-2.6-.15-5.35-.44-6.13-.64l-1.41-.36-.64.69a20.54 20.54 0 00-4.27 6.16 22.96 22.96 0 00-1.42 3.9c-.52 2.39-.9 7.07-.96 11.58-.04 3.44.02 4.06.52 5.65.61 1.94.7 2.1 2.65 5.01l1.33 1.98 2.93 1.32c4.95 2.22 7.7 2.77 14.78 2.98 7.66.21 17.6-.85 23.1-2.49 1.66-.49 3.56-.98 4.22-1.08 2.5-.39 7.48-.23 12.94.4 6.72.77 7.79 1.14 10.15 3.48 1.94 1.91 5.25 6.55 6.2 8.68.63 1.42.7 1.82.7 4.1-.02 2.12-.11 2.75-.6 3.86a8.86 8.86 0 01-1.05 1.87l-.48.54.82.33c1.29.51 6.38 2.44 9.05 3.42 3.02 1.1 4.02 1.69 6 3.5 1.76 1.61 3.92 4.94 5.11 7.91.6 1.49 1.7 3.06 1.41 3.24-.58.37-1.8-1.1-2.72-3.23-.94-2.15-3.28-6-3.65-6-.12 0-.22-.15-.22-.34 0-.51-2.71-3.03-3.27-3.03-.5 0-5.16-1.65-10.34-3.64-1.7-.66-3.3-1.2-3.57-1.2s-1.05.33-1.75.72c-1.61.9-5.83 2.58-7.01 2.8-.5.09-.9.26-.9.37 0 .12-.26.22-.57.22-.75 0 .64-.54.64-.28 0 .11-3.87 1.53-4.37 1.6-.5.09-1.26.31-1.7.5-.44.2-1 .35-1.27.35-.26 0 .47-.18.47-.06 0 .11-1.25.56-1.61.66-.37.09-2.1.8-3.87 1.6a79.46 79.46 0 01-7.13 2.65 77.9 77.9 0 00-5.5 1.91 18.69 18.69 0 01-5.93 1.56 86 86 0 01-12.9-.22c-1.82-.2-5.7-.48-8.63-.63-5.94-.3-10.16-.75-10.94-1.16-.28-.16-.79-.28-1.13-.28-.34 0-.62-.1-.62-.2 0-.26-4.06-1.49-4.92-1.49-.36 0-.64-.1-.64-.24 0-.13.48.07.3.07-1.21 0-8.7-3.92-11.06-5.8-1.75-1.4-2.27-1.5-3.9-.83-1.08.44-3.98 3.55-4.33 4.63-.1.33-.44.98-.75 1.44-.3.47-.63 1.31-.72 1.88-.09.56-.26 1.02-.37 1.02-.3 0-1.3 2.06-1.76 3.6-.21.73-.5 1.39-.63 1.47-.73.45-2.49 7.25-2.38 9.18.08 1.33.08 3.25-.4 3.25-.29 0-.62-2-.7-2.2zm9.14-31.88c-.44-.3-1.91-3-2.46-4.52a39.9 39.9 0 01-1.5-6.63c0-.32-.65-5.24-.35-5.24.38 0 1.33 5.02 1.55 6.14.73 3.72 1.12 4.96 2.33 7.39.71 1.44 3.26 5.48 3.26 5.6 0 .25-2.47-2.5-2.83-2.74zm-31.5-15.51l-2.1-2.18-2.9 1.08-2.9 1.08-7.61-7.58-7.62-7.58 1.93-1.93 1.93-1.94-1.75-1.74-1.74-1.74-1.4 1.38-1.4 1.39-1.08-1.1L5 61.74l3.93-3.91 3.92-3.91 1.1 1.09 1.08 1.09-1.33 1.3-1.33 1.32 1.74 1.76 1.75 1.76 1.95-1.93 1.94-1.93 7.58 7.56 7.58 7.56-1 2.74c-.54 1.5-.99 2.85-.99 3 0 .14.88 1.12 1.96 2.18 2.17 2.13 2.54 2.76 2.12 3.56-.37.7-.68.88-1.5.89-.57 0-1.1-.41-2.79-2.18zm-4.63-4.3l1.81-.68.72-2.08.73-2.09-1.69-1.7-1.68-1.68-2.85 2.83-2.84 2.83 1.62 1.63c.9.9 1.8 1.63 2 1.62a15 15 0 002.18-.69zm-5.44-13.53l-3.03-3.02-2.84 2.83-2.83 2.83 3.01 3.02 3.02 3.02 2.85-2.84 2.84-2.83zm-4.06 3.9l-1.14-1.15 1.15-1.14 1.16-1.14 1.14 1.16 1.14 1.15-1.16 1.14-1.15 1.14zm41.17 12.77c-.25-4.35-.37-8.1-.5-9.93-.17-2.29-.24-2.8.25-2.68.63.16.72 1.62.95 8.04.14 4.17.61 8.79.22 8.89-.23.06-.92-4.23-.92-4.32zm-.77-15.9c-.14-4.65.62-12.61 1.58-16.46.73-2.9 1.11-3.83 3.55-8.68a69.8 69.8 0 012.94-5.5c.11-.05.2-.2.2-.32s.2-.52.46-.88c.75-1.1 2.8-4.47 3.18-5.24.2-.4.46-.84.6-1 .13-.14.4-.5.6-.8.2-.3.56-.76.79-1.03.23-.28.42-.57.42-.65 0-.09.45-.64 1-1.23.54-.6 1.44-1.67 1.99-2.4 1.23-1.64 3.07-3.62 3.34-3.62.12 0 1-.77 1.95-1.72 1.72-1.68 3.55-3.1 4.01-3.1.13 0 .3-.15.36-.33.07-.17.76-.56 1.54-.85.77-.3 1.8-.79 2.26-1.1.47-.3 1.83-.86 3.03-1.22 1.19-.37 2.62-.87 3.18-1.11a22.3 22.3 0 013.02-.92c7.94-1.86 7.18-1.75 14.1-1.97 3.6-.12 6.7-.16 6.9-.1.2.06 1.6.27 3.1.46 1.52.2 2.88.46 3.03.57.81.61 2.66.99 5.21 1.06 1.91.06 2.7.21 2.87.35l.41.33c.13.1.7.43 1.17.95.61.67.9 1.26 1.03 2.07.14.96.32 1.06.86 1.37 3.18 1.81 1.4 1.24.15 1.24-1.15 0-2.11-.79-2.11-2.1 0-.59-.24-1-.96-1.71a5.27 5.27 0 00-5.42-1.32c-.84.23-1.1.18-2.54-.5-.88-.43-2.31-.88-3.18-1-.86-.12-2.22-.33-3.02-.46-2.37-.4-13.56.1-15.96.7-1.06.27-2.75.66-3.75.88-2.69.6-9.2 2.8-10.1 3.41-.45.3-1.32.7-1.94.88-1.27.38-4.32 2.47-6.34 4.36-.73.68-1.8 1.62-2.38 2.08-.58.47-1.66 1.65-2.4 2.64-.75 1-1.8 2.3-2.34 2.92-.54.62-1.14 1.33-1.34 1.59a19.13 19.13 0 00-2.66 3.93c-.43.86-.97 1.84-1.2 2.18a53.07 53.07 0 00-3.65 6.28 16.49 16.49 0 01-1.46 2.61c-.12.05-.88 1.39-1.69 2.99a18.8 18.8 0 00-1.96 5.22A77.88 77.88 0 0060 65.91c.02 3.35.3 5.99-.56 5.67-.4-.14-.35-2.34-.44-4.94zm47.45-27.29c-1.73-.94-2.17-3.16-.97-4.84.27-.38.49-.77.49-.87 0-.22 1.95-2.6 2.23-2.71.32-.14.2-1-.14-1-.84 0-3.37-2.48-3.5-3.43-.03-.19.09.02 0-.08-.25-.24-.55-2.99-.29-3.15.12-.07.08.28 0 .03-.12-.35 1.09-2.16 1.12-2.1.18.35.02.28-.07.28-.28 0 .97-1.21 1.74-1.69 3.1-1.91 7.28-.08 8.24 3.6.78 3.02-1.4 6.14-4.76 6.8-.78.15-1.43.37-1.43.5a19 19 0 00.97 2.25c1.06 2.22 1.23 3.6.64 5.02-.65 1.55-2.73 2.23-4.27 1.4zm3.34-.64c.46-.32.53-.6.53-1.92 0-1.26-.14-1.85-.77-3.12-.43-.87-.9-1.58-1.05-1.58-.36 0-1.37 1.11-2.14 2.35-.9 1.46-.9 3.44 0 4.15.78.61 2.63.68 3.42.12zm-1.17-10.83c.64-.77-.3-1.95-1.14-1.43-.84.53-.54 1.78.42 1.78.24 0 .56-.15.72-.35zm3.37-2.4c.38-.2.82-.7 1-1.11.67-1.62-1.06-3.31-2.69-2.64-1.06.44-1.6 1.64-1.19 2.64.3.72 1.22 1.42 1.89 1.44.17 0 .62-.15 1-.34zm34.68 3c-1.4-.85-1.34-2.6.12-3.45.67-.4.9-.42 1.5-.17 1.84.76 1.88 2.9.08 3.83-.7.36-.8.35-1.7-.2z" clip-path="url(#i)"/>
  </g>
  <g transform="translate(-40.48 -4.54)">
    <path fill="#fff" d="M149.19 55.57l7.15 5.35-13 16.5-7.16-5.36z"/>
    <ellipse cx="109.74" cy="24.47" fill="#fff" rx="5.51" ry="4.87"/>
    <path fill="none" d="M40.48 4.54h169.27v184.62H40.48z"/>
    <path fill="#bbe7d7" d="M97.48 185.98c-.93-.09-2.54-.24-3.73-.33-1.2-.09-2.96-.45-3.82-.64-.87-.19-2.42-.58-3.42-.8-3.36-.7-5.18-1.3-9.68-3.32-2.46-1.1-5-1.93-5.65-2.21-.65-.3-2.06-1.03-3.05-1.34a56.5 56.5 0 01-10.36-5.24c-1.5-1.13-6.9-5.96-8.2-7.29a27.25 27.25 0 01-3.7-5.05 6.2 6.2 0 01-.65-2.86c0-2.39-.01-5.96 1.07-4.12.5.87 2.83 4.44 2.98 4.6.15.16 1.04 1 1.76 1.85 1.87 2.21 1.73 2.8 4.06 4.64 4.2 3.31 6.78 4.51 13.33 7.47 8.4 3.8 19.86 5.36 30.34 6.28 3.56.31 10.95 1.2 13.1.8.74-.15 2.36-.42 3.23-.56 2.22-.38 5.56-1.07 8.12-2.3 1.2-.57 3.37-2.1 5.08-3.22 1.7-1.13 3.55-1.7 4.3-2.05l2.1-.95 2.14.81c2.38.91 2.18 1.77 1 3.1-1.11 1.26-5.36 4.23-6.84 4.99-3.09 1.58-8.25 4.23-11.4 5.34-5.98 2.1-15.09 3.06-22.11 2.4zm82.68-2.82c.17-.07.38-.07.46.01.08.08-.06.14-.32.13-.28-.01-.33-.07-.14-.14zm-9.33-1.45c-1.76-.24-3.92-.52-6.02-.84-2.1-.31-4.12-.67-5.58-1.1-4.8-1.37-15.2-5.8-19-8.04-.7-.41-1.95-1-2.77-1.34-.82-.34-3.07-1.46-4.87-2.35-1.8-.89-3.89-1.98-4.95-2.44-1.8-.76-5.36-2.56-6.47-3.52a17.28 17.28 0 00-2.4-1.65 38.09 38.09 0 01-4.8-3.58c-2.82-2.47-7.58-7-8.14-7.8-.19-.26-1-1.05-1.74-1.66-3.68-3.1-4.23-4.53-3.44-5.57.31-.41 3.04-1.61 3.65-1.61.67 0 4.33 2.87 6.88 5.92 3.7 4.46 5.76 6.35 9.94 9.29 2 1.4 3.46 2.74 3.59 2.85.13.11.94.63 1.4.86.47.23 2 .83 3.2 1.62 1.2.8 2.13 1.76 2.33 1.85.43.19 2.67 1.33 3.59 1.91.35.23 1.44.67 1.77.85.33.18 1.9 1.12 3.7 2.13 6.02 3.39 13.54 6.2 21.2 8.76 4.58 1.52 15.88 4.87 18.08 5.1.9.1 1.6.3 1.66.47.13.4-6.01.56-9.31.1zm8.1 0c.3-.07 1.64-.1 1.87-.04.23.06.38.77-.15.77s-5.58-.26-1.71-.74zm20.36-38.13l-.59-.66.67.58c.37.32.66.62.66.67 0 .18-.2.03-.74-.59zm-116.58-.25a34.4 34.4 0 01-4.6-.51c-.86-.2-2.37-.42-3.3-.54-2.56-.33-5.84-1.2-7.46-2.03a221.43 221.43 0 01-6.59-3.53c-1.26-.75-3.6-2.35-3.92-2.96-.2-.39-.08-1.34-.2-1.34-.13 0-.22-.3-.2-.68 0-.38-.58-.74-.67-.88-.43-.7 1.7-9.6 2.48-10.45.37-.4 1.58 1.62 1.57 4.83-.02 3.86.9 3.32 2.5 5.44 3.26 4.29 9.35 7.46 20.44 8.38 5.63.47 8.67.27 13.81-.69 16.6-3.08 22.44-3.14 26.2-2.57 2.05.31 4.41 1.11 3.76 1.33-.2.06-4.76.17-7.09.26-2.33.08-2.78.29-3.25.41-.47.12-1.9.31-2.79.39-2.36.2-5.03.64-6.73 1.03-1.54.36-5.76 1.78-6.6 2.3-.7.42-2.5.96-3.9 1.25-1.1.22-2.7.34-8.47.62-1.06.05-1.93.1-3.6.01l-.7-.03zm111.49-3.6c-.3-.4-.3-.4.1-.1.22.18.41.37.41.42 0 .2-.2.07-.51-.33zm-.97-.73c-.3-.38-.29-.4.1-.1.23.19.42.38.42.43 0 .2-.2.07-.52-.33zm-79.42-21.8c-2.33 0 .53.06-.87-.14-2.38-.36-15.7-1.2-17.53-1.1-2 .1-6.3-.78-10.4-2.1-2.32-.76-4.5-1.2-4.77-1.39-.26-.18-.72-.65-.97-.65-.48 0-6.15-2.95-6.4-3.35-.08-.12-.7-.65-.93-.65-.23 0-.79-.53-1.12-.83-1.03-.93-3.35-3.34-3.35-3.63 0-.15-.31-1.14-1.03-2.1-1.3-1.76-4-5.7-4-6.45 0-.22-.45-1.78-.71-2.79-.9-3.53-1.2-2.68-1.32-7.23-.08-2.52-.3-10.25-.43-11.57-.27-2.76-.56-10.09-.34-11.35.08-.47.26-2.53.4-4.64.15-2.1.47-4.08.58-4.3.1-.21.39-1.89.62-3.15.42-2.28 2.08-6.26 2.62-6.26.13 0 .43-.72.43-.98s1.23-1.72 1.38-1.81c.16-.1 1.9-.62 1.81-.48-.08.13-1.76 4.59-1.97 6.16-.2 1.58-.87 3.9-1 4.84-1.64 11.45-.7 24.51 1.6 33.45 1.72 6.72 4.54 11.83 8 15.42.83.86 1.42 2.59 1.78 3.02.36.44 1.77.78 2.65 1.4.88.63 1.71 1.99 1.84 2.1 2.83 2.2 9.31 4.34 14.61 5.38a81.88 81.88 0 0025.38.7c6.8-.96 19.86-4.12 24.23-5.59.8-.26 6.07-.54 6.26-.54.74-.02-3.03 1.72-5.24 2.45a31.43 31.43 0 00-3.53 1.4c-.18.14-1.26.28-2.02.6-2.83 1.17-6.6 2.75-6.81 2.75-.63 0-4.8 1.2-6.47 1.96-1.66.75-3.33 1.1-5.64 1.26-1.47.1-2.83.31-3.23.37-.4.06-.86-.18-3.03-.18zM101 43.42c-3.13-.15-4.17-.05-6.86-.8-1.72-.49-2.4-.54-2.5-.54-.08 0-3.08.62-3.96-1.66l-3.52-.78 1.61-1.93c.78-.92.67-2.03 1.19-1.45.63.7 3.32 2.08 4.85 2.34.77.13 3 .3 5.2.38 3.8.13 3.98-.7 5.87-.52l2.83-.06 1.16.87c1.6 1.21 1.77-2 3.77-2.6 1.64-.48.5.91.5.91.5-1.9 4.83-3.8 5.92-4.17 2.51-.88 2.89-.63 4.57.19 1.42.69 2.08.76 6.77 1.9 3.6.88 7.01 1.7 12.25 1.57 6.2-.15 8.59-1.36 10.7-2.38l1.3-.63 1.58.32c2.03.41 3.13 1.8 3.76 1.8 1.59 0-.58 2.72-3.66 4.3-3.17 1.6-7.48 2.13-14.86 2.18-5.6.05-8.2-.16-11.79-1.14a85.76 85.76 0 00-8.84-1.99c-.22 0-.78.32-2.1 1.2-1.3.87-2.2 1.52-2.47 1.55-.27.03-1.38.48-1.8.7-1.49.77-6.4.67-11.48.44z"/>
    <path fill="#3fc28f" d="M90.63 159.54c-5.72-.88-9.1-2.67-11.73-6.2-1.53-2.05-1.96-3.07-1.97-4.7l-.01-1.38-1.14 1.25c-1.57 1.71-3.89 2.65-6.94 2.8-3.07.15-8.11-.62-9.73-1.48-.28-.15-1.45-.87-2.56-2.08l-1.97-2.14-.46-4.51c-.23-2.37.27-3.4.44-4.02.34-1.25 1.1-2.49 1.87-2.49.47 0 2.22.96 3.3 1.82.03.04.24.92.02 1.67-.27.94-.7 1.5-.59 2.3.14 1.02.34 1.35 1.43 2.38 1.98 1.86 2.94 1.8 5.68 1.83 2.98.04 4.57.1 5.74-.93.8-.7 1.34-1.27 2.9-1.12.9.08 2.91.66 3.84.86.93.2 2.06.3 2.52.2l.82-.15.26 1.38c.28 1.54-.61 3.01-.14 3.81.78 1.33 3.77 1.98 7.4 2.62 2.12.37 5.81.02 7.5-.77 1.08-.5 4.43-3.43 4.43-3.43.38-.97.5-.63.73-.8.45-.32.7.18 2.74 2.16.56.56.77 1.19.84 1.41.07.22.64.29.83.36.49.19.13 1.77-.36 1.77-.2 0-.36.2-.36.44s-.16.65-.36.9c-.2.26-.35.64-.36.85 0 .38-3.26 3.89-4.58 4.7-.64.4-6.28 1.1-7.4 1.05-.26-.01-1.45-.17-2.63-.36zm89.34-3.23a3.6 3.6 0 00-1.26-.49c-.52 0-3.8-1.37-6.48-2.71a19.14 19.14 0 01-3.42-2.24c-2.12-1.88-3.25-2.6-3.82-2.41-.28.09-1.45.78-2.62 1.54a37.06 37.06 0 01-6.95 3.78c-1.37.51-2 .6-4.5.6-1.73 0-3.56-.15-4.53-.37-1.46-.33-1.87-.58-4.05-2.39a72.96 72.96 0 01-5.24-5.01c-2.89-3.07-3.17-3.56-3.38-5.83l-.07-.69-1.47 1.42c-2.14 2.06-3.37 2.44-6.74 2.07-2.06-.23-2.94-.09-4.28-.76-2.14-1.08-4.37-2.27-3.91-3.52l.5-1.35 1.05.02c.59 0 5.65-.05 11.26-.13l10.19-.15.17 1.7c.15 1.48.84 1.84 1.86 3.38 1.78 2.69 2.86 3.33 4.42 4.69l2.07 1.39 3.14.1 3.33-.45 1.5-.83c1.46-.8 1.72-.83 2.3-1.94.38-.71.92-1.7 1.16-1.78.23-.08 1.86.26 2.84.5 1.24.3 2.36.5 4.6.5 1.76 0 3.37.21 3.37.3 0 .1.6.74 1.31 1.43a9.15 9.15 0 003.31 2.07c1.82.73 2.31.1 4.53.1 2.97 0 2.94.68 4.35-2.73l.98-2.35-1.15-1.75c-1.22-1.85-2.85-3.5-4.1-4.15-.95-.49-4.4-.5-6.88-.03-2 .38-3.88 1.22-4.68 2.1-.6.66-.37 2.85.08 3.13.14.09-.4.9-.4 1.1 0 .33-.42.64-1.8.5a45.27 45.27 0 01-8.27-1.87c-2.18-.82-1.1-1.17 3.93-3.96 4.3-2.4 9.46-3.3 17.4-3.06l4.6.14 1.99 1.67c3.76 3.17 5.36 5.94 5.36 9.29 0 3.74-1.14 6.05-3.88 7.85-.92.6-1.83 1.1-2.02 1.1-.2 0-.53.17-.74.38-.26.26-1 .9-2.29.97-1.55.09-1.97-.47-2.67-.87zM97.62 130.4c-.54-.2-1.88-.58-3-.87-3.4-.86-7.94-3.36-9.01-4.98-1.16-1.75-1.48-2.6-1.63-4.35l-.15-1.75-2.16 1.21c-1.63.9-2.74 1.33-4.48 1.7-2.14.47-2.54.49-5.69.22a28.92 28.92 0 01-4.71-.73c-.74-.24-1.61-.5-1.95-.57-.91-.2-3.6-2.47-4.01-3.68-.44-1.3.45-2.56 1.21-3.72.31-.46.65-1.11.75-1.44.2-.66.58-1.66.82-1.65.08 0 .53 1.31 1 2.36l1.61 2.29.92.34c3.37 1.24 4.04 1 6.97.85 3.1-.16 3.91-.93 5.88-2.11.78-.47 2.3.1 2.58.1.75 0 4.77 1.24 4.77 1.48 0 .1 2.1.29 1.7.24l-.25-.04.94 1.92-.66 1.95 1.63 1.38c.78.66.84 1.88 1.4 2.27.57.38 1.44 1.07 1.94 1.53 1.05.95 1.4 1.1 4.12 1.82 1.1.29 2 .63 2 .76 0 .15.73.2 1.87.15a7.74 7.74 0 003.69-.95c1-.48 2.41-1.07 3.14-1.3.8-.27 2.15-1.06 3.39-2 2.04-1.55 2.06-1.57 2.61-3.36l.56-1.8 2.22.06c1.22.03 2.95-.03 3.84-.14l1.61-.18 1 1.28c1.3 1.65 4.21 5.46 6.05 6.31a14.48 14.48 0 005.57 1.57c1.64.12 1.75-.78 2.87-1.35a7.68 7.68 0 003.34-3.55c.26-.52 1.45-2.06 1.9-3.8.7-2.7-.15-3.83-.15-6.13 0-2.54 1.01-2.47 1.46-2.47.26 0 .83-.16 1.27-.35.44-.19 1.06-.62 1.56-.7.5-.08 1.05-.03 1.05-.14 0-.28 3.11-1.37 3.11-1.37.53 0 1.65.35 2.1 1.3.72 1.55 2.58 4.84 4.1 5.6.66.33 1.47.08 1.54.16.34.44 2.26-1.35 5.26-.18l3.78 1.47.53-1.52c.32-.9 3.21-.97 4.17-1.82 1.58-1.43 1.75-2.33 1.9-3.4.2-1.54.59-.84 2.36.87 1.24 1.2 1.87 1.64 1.74 2.26-.2.89-4.08 4.7-5.48 5.69a24.73 24.73 0 01-5.89 2.9c-1.55.41-2.6.4-5.5-.03-1.87-.28-2.88-.6-4.94-1.57-3.5-1.65-6.41-.95-7.3-3.48l-.2-.57-.8.92c0 3.53-.13 5.55-1.5 8.37a15.63 15.63 0 01-5.36 5.82c-1.42.95-3.69 1.33-6.74 1.12-3.25-.22-5.02-.68-7.04-1.83a14 14 0 00-1.83-.95c-.1 0-.9-.43-1.78-.96a9.68 9.68 0 00-1.88-.97c-.54 0-2.96-2.4-3.4-3.36-.5-1.12-.69-1.2-1.16-.45-1.7 2.73-5.11 6.23-6.95 7.15-1.97.99-3.73 1.6-8.95 1.74-3.42.08-4.52-.32-5.28-.6zm-2.48-35.62a18.87 18.87 0 01-3.8-1.05 37.9 37.9 0 00-1.87-.84c-.31-.11-1.26-.73-2.1-1.37-2.06-1.54-2.83-3.23-3.1-6.76-.1-1.33-.03-1.62.65-2.84.43-.74.68-1.35.57-1.35-.12 0-.7.18-1.3.39-2.4.84-6.17.28-8.74-2.06-1.05-.96-1.13-1.9-1.37-2.92-.16-.68-.28-1.6-.28-2.06 0-1.1 1.33-5.07 2-5.94a45.04 45.04 0 014.04-4.47 14.3 14.3 0 014.06-2.4 4.96 4.96 0 001.42-.81c.1-.15-.4 1.4-.4 2.94v2.82l-1.66.76c-1.4.65-1.84 1-2.78 2.28-.98 1.33-1.12 1.68-1.12 2.71 0 1.36.81 3.99 1.38 4.46.6.5 3.54.32 4.82-.3 1-.48 1.1-1 1.66-.63.33.21.6 1 .6 1.12 0 .12.58.58 1.24 1.44 1.1 1.45 1.49 1.29 1.28 2.01-.34 1.18-.63 3.5-.22 4.37.2.42 1.06 1.46 1.91 2.3l1.54 1.51 2.5.46c1.58.28 3.65.45 5.57.45h3.05l2.63-1.35c2.78-1.44 3.07-1.69 3.4-2.98l.22-.8 3.25-.09c1.8-.04 4.1-.2 5.14-.35 1.04-.15 2.26-.55 2.3-.5 1.5 2.3 2.65 3.55 6.19 4.4 1.61.39 2.79-.27 6.76-.27 4.73 0 4.52.3 6-.35 1.3-.57 2.17-.57 4.07-2.77a9.77 9.77 0 001.86-3.79c0-.41.46 0 1.87.15 2.29.24 3.48-.01 3.31.64-.07.29-.5 1.66-.59 1.73-.3.25-1.61 2.65-1.95 3.77-.77 2.57-2.6 4.03-6.5 5.21-1.36.41-3.01.94-3.68 1.16-1.71.6-10.1.6-11.73.01-.6-.21-1.85-.63-2.78-.92a9.7 9.7 0 01-2.06-.84c-.2-.17-.73-.49-1.17-.72-1.1-.55-2.4-1.76-2.6-2.39a2.9 2.9 0 00-.46-.87c-.17-.2-.35-.58-.4-.84-.08-.38-.35-.1-1.21 1.22a10.2 10.2 0 01-4.31 3.89 35.5 35.5 0 00-2.42 1.46c-2.67 1.8-5.35 2.46-9.92 2.42a35.28 35.28 0 01-4.77-.45zM84.3 37.65c-1.15-.84-2.48-2.25-2.14-2.46.13-.08.06-.97.06-1.26 0-.93 1.87-2.18 3.63-3.82 5.02-4.74 16.65-11.3 18.73-9.98.23.14 1.65.47 1.27 1.2-.38.74-1.6 2.1-1.56 3.52l.87 1.87-1.55-.13S90.8 32.84 86.8 37.06c-.68.71-1.45 1.54-1.53 1.54-.08 0-.43-.56-.96-.95z"/>
    <path fill="#2698ca" d="M106.36 38.58c-1.2-.94-.82-4.06.88-6.08.98-1.16 1.88-.66 2.7 1.1.54 1.13.37 2.1.37 3.13 0 1.31-.04 1.77-.78 2.22-1.03.62-2.36.27-3.17-.37z"/>
    <path fill="#2f9b72" d="M181.4 182.02c-.14-.1-2.06-.73-3.55-.96-6.48-1-16.92-4.08-25.22-7.46a145.26 145.26 0 01-17.29-8.58c-14.55-8.52-19.2-11.93-24-17.61-3.1-3.68-4.81-5.5-5.95-6.33-.6-.44-1.45-.9-1.24-.96.18-.06 1.31-.04 1.74-.18.43-.14 2.25-.76 4.35-1.03 2.1-.28 5.25-.72 6.06-.85 2.02-.32 1.43.05 1.6 1.06.18 1.17 1.44 2.4 3.49 3.42 1.19.6 2.07.82 4.05 1.04 3.37.37 4.6 0 6.74-2.07l1.47-1.42.07.69c.21 2.27.5 2.76 3.38 5.83 1.55 1.64 3.9 3.9 5.24 5.01 2.18 1.81 2.6 2.06 4.05 2.39.97.22 2.8.37 4.53.37 2.5 0 3.13-.09 4.5-.6 1.87-.7 4.05-1.89 6.95-3.78a22.2 22.2 0 012.62-1.54c.57-.18 1.7.53 3.82 2.41.76.67 2.3 1.68 3.42 2.24 2.69 1.34 5.96 2.71 6.48 2.71.23 0 .84.23 1.37.52.82.43 1.23.49 2.72.38 1.13-.09 1.89-.27 2.14-.52.2-.2.54-.38.73-.38.2 0 1.1-.49 2.02-1.1 2.73-1.78 3.88-4.1 3.88-7.8 0-3.41-3.21-7.5-7.08-10.73-1.3-1.07.63.1 2.9 1.02 2.52 1.02 5 2.23 8.53 4.79 4.08 2.97 5.72 5.1 7.41 7.94 3.2 5.33 4.13 8.82 2.4 13.03-.86 2.08-3.2 4.94-5.01 7.34-.93 1.24-1.74 3-2.04 3.6a15.1 15.1 0 01-3.83 4.38c-2 1.22-5.51 2.48-10.41 3.33-3.01.52-2.73.68-3.05.4zm-81.6-2.57c-18.93-1.37-37.83-8.4-47.78-17.76-2.85-2.68-6.04-7.31-6.04-8.77 0-.98-.1-3.37.62-5.66 1.02-3.2 7.5-12.05 8.73-12.05.32 0 .28.44-.09 1-.38.58-1.04 2.25-.65 5.9l.17 2.48 2 2.81a10.7 10.7 0 002.35 2.43c1.62.86 6.66 1.63 9.73 1.48 3.05-.15 5.37-1.09 6.94-2.8l1.14-1.25v1.38c.02 1.62.45 2.66 1.95 4.67 2.71 3.63 6.1 5.38 12.1 6.26 2.47.36 2.73.36 5.64-.11 1.67-.27 3.35-.69 3.73-.92 1.33-.82 4.9-4.01 4.9-4.39 0-.2.17-.59.36-.85.2-.25.36-.66.36-.9s.16-.44.36-.44c.2 0 .37-.21.37-.48 0-.26.16-.76.27-.76.1 0 1.41 1.2 2.46 2.2 1.06 1 2.14 2.07 2.67 2.49.54.41 1.58 1.53 2.58 2.48 1 .94 2.68 2.23 3.74 2.86 1.07.63 2.73 1.52 3.48 2.1.82.64 3.88 2.19 7.23 3.78 3.1 1.46 5.57 2.7 5.57 2.7a8 8 0 01-1.5.8c-.73.34-2.67 1.48-4.3 2.53-6.08 3.91-10.25 5.5-16.91 6.43a67.9 67.9 0 01-12.19.36zM89.23 151.8c-3.6-.65-6.19-1.78-6.96-3.02a5.85 5.85 0 01-.46-3.71l.27-1.62 5.81.13c5.7.12 8.98-.43 10.3-1.03.86-.4 2.03-.2 2.03.6 0 .47.29 1.09 1.1 1.84.64.57 1.14 1.05 1.34 1.05.26 0 .08.3-.34.65-.33.28-.58.57-.55.66.09.3-3.37 3.14-4.43 3.64-.95.44-2.82.78-5.66 1.03-.46.04-1.57-.06-2.45-.22zm86.29-3.07c-1.35-.56-3.39-1.25-4.32-2.15-1.39-1.34-2.77-1.71-2.08-1.72a6 6 0 001.38-.86c.4-.3 2.18.29 1.81.15-.22-.09-.52-.06-.67.05-.15.1-.93.22-1.72.25-1.4.06-1.36.56-1.66-.13-.44-.99-.25-3.64.42-4.38.79-.87 2.67-1.72 4.67-2.1 2.48-.48 5.93-.46 6.88.03 1.25.64 2.88 2.3 4.1 4.15l1.15 1.75-.98 2.35c-1.42 3.43-1.43 3.44-4.53 3.41-2.3-.02-2.74-.1-4.45-.8zm-26.76.12c-1.62-.37-3.69-1.78-5.16-3.53-2.23-2.64-3-4.07-3.2-5.94l-.16-1.6 2.05-.17c3.86-.3 7.94 1.84 14.23 4.9l3.85 1.52-.83 1.7c-.6 1.22-.97 1.49-2.44 2.29-1.67.9-1.74.91-4.6.96-1.6.04-3.28-.03-3.74-.13zM64.73 145c-1.56-.22-2.58-.77-4.14-2.25-1.09-1.02-1.29-1.35-1.43-2.37-.1-.8-.03-1.6.23-2.5l.32-1.54 1.4.7c2.4 1.22 6.84 3.6 9.11 4.29 1.33.4 2.64.98 2.94 1.05 1.25.32.27.64-.24 1.15-1.03 1.04-5.52 1.84-8.2 1.47zm90.6-3.9c-1.94-1.18-8.56-3.24-11.21-3.67-1.36-.23-4.11-.14-9.82-.13-6.16.02-7.7.06-7.7-.16 0-.88-6.48-1.84-11.38-1.35-3.2.32-9.99 1.44-17.72 2.91-4.7.9-5.57 1-8.95 1-11.62-.01-22.01-2.72-26.58-6.94-2.77-2.56-3.73-5.27-3.17-8.89.17-1.1-.14-2.78-.22-3.1-.25-.96 1.76-4.99 2.36-4.99.23 0 .34.83.76 1.54.25.42 2.48 2.81 3.15 2.96.33.07 1.2.33 1.94.57.73.24 2.85.57 4.71.73 3.15.27 3.55.25 5.7-.21 1.73-.38 2.84-.8 4.47-1.71l2.16-1.2.15 1.74c.15 1.75.47 2.6 1.63 4.35 1.07 1.61 5.6 4.12 9.01 4.99 1.12.28 2.56.68 3.2.89.95.3 1.92.35 5.32.23 5.07-.17 6.79-.45 8.71-1.4 1.84-.93 5.24-4.43 6.95-7.16.47-.74.66-.67 1.17.45.43.96 2.85 3.36 3.4 3.36.15 0 1 .44 1.87.97.89.53 1.69.96 1.78.96.1 0 .92.43 1.83.95 2.02 1.15 3.79 1.61 7.04 1.83 3.05.2 5.32-.17 6.74-1.12a14.84 14.84 0 005.04-5.82 16.5 16.5 0 001.82-8.2c0-1.43.09-2.6.2-2.6.1 0 .72.56 1.38 1.24 1.53 1.56 3.18 2.62 6.57 4.24a14.94 14.94 0 005.08 1.65c2.92.44 3.96.44 5.51.03a24.73 24.73 0 005.9-2.9c1.2-.86 5.11-5.6 5.11-6.12 0-1.46 2.4 2.76 3.96 6.4.48 1.1 1.62 2.24 1.94 2.8 1.33 2.28 2.13 9.16 1.65 12.25-.29 1.84-1.1 3.1-1.46 3.1-.12 0-.78 0-1.43-.2-.86-.25-2.41-.21-5.48-.21-5.3 0-10.12.7-13.02 1.75-1.7.61-6.59 3.42-7.47 4.26-.87.83-1.53.58-2.6-.08zm-55.17-14.17c0-.13-.9-.48-2-.76-2.73-.71-3.07-.87-4.12-1.82-.5-.46-1.37-1.15-1.93-1.54a12.66 12.66 0 01-2.17-2.15c-1.15-1.45-1.15-1.47-1.15-3.32 0-1.67-.1-2.04.28-1.89.9.37 5.61.7 10.84.96 3 .14 7.26.64 9.52.87 2.26.24 4.28.24 4.77.18.5-.06 1.19.24 1.19.29 0 .04-.25.86-.55 1.8-.53 1.69-.57 1.75-2.6 3.28a14.05 14.05 0 01-3.38 2c-.73.23-2.14.82-3.14 1.3-1.5.71-2.15.88-3.69.95-1.14.06-1.87 0-1.87-.15zm33.49-.64a20.04 20.04 0 01-4.42-1.74c-1.43-.88-4.7-4.32-5.4-5.69l-.74-1.45.5-.18c.36-.08 1.37-.42 2.23-.76 2.65-1.02 3.97-1.51 7.5-2.64 1.87-.6 5-1.57 6.8-2.37 1.83-.8 3.59-1.52 3.92-1.6l.61-.16v2.5c0 2.06-.15 3.05-.83 5.67-.92 3.53-1.34 4.5-2.78 6.3-1.8 2.27-4.15 2.94-7.4 2.12zm-64.2-10.61c-3.32-.54-3.91-1.43-4.83-3.43-.83-1.8-1.21-1.95-.8-2.73 1.4-2.59 4.99-4.12 6.29-2.83 1.56 1.55 6.16 4.13 10.31 5.91.77.33 1.96.57 1.91.7-.16.52-4.32 2.48-5.87 2.72-2.63.4-5.17-.04-7.02-.34zm91.17-.9a3.1 3.1 0 01-.97-.4 8.34 8.34 0 00-1.33-.77c-1.58-.79-4.32-3.6-5.23-5.39-.4-.78-.9-1.68-.86-1.7.04-.03.8.06 1.45-.1a39 39 0 006.9-3.23c.85-.64 1.74-.49 4.9.75 1.57.6 4.72 1.54 6.32 2.1 4.92 1.76 4.12.82 3.94 2.08-.14.95-.16 1.84-1.57 3.14a31.4 31.4 0 01-3.68 2.83l-1.62.97-3.7-.02a30.65 30.65 0 01-4.55-.27zm-57.59-.94c-7.03-.37-14.06-2.06-19.2-4.62-9.5-4.73-15.63-12.94-18.62-24.92-2.57-10.31-2.7-23.53-.35-38.27.26-1.64.5-3.3.55-3.7.12-1.17 2.97-6.54 4.93-9.28.24-.33.33-1.27.73-2.07.64-1.3 1.88-2.5 2.9-3.71.18-.2.4-1.05.98-1.74.59-.68 1.74-2.12 2.58-3.2.83-1.06 1.56-2 1.64-2 .08 0 1.37-.59 2.36-1.52 2.44-2.28 5.95-5.24 7.17-5.57.55-.14 1.64-.25 2.14-.58.5-.34 1.46-.77 2.15-.95.68-.18 1.76-1.04 2.82-1.43 1.07-.39 3.15-.96 4.41-1.26 1.27-.3 3.13-.28 3.93-.46.8-.2 2.1-.45 2.9-.57 2.15-.35 12-.92 14.53-.6 1.9.25 5.58 1.45 6.4 2.07.15.11 1.11-.08 2.14-.21 2.33-.3 4.03.47 5.26 1.73.7.7.37 1.1.47 1.99.13 1.13 0 .8 1.55 1.56 1.57.77 1.88 1.25 5.92 2.78 5.44 2.06 5.39 1.48 7.68 3.22.8.61 1.78 1.9 2.4 2.28 1.13.69 2.63.36 1.26 1.83-.62.67.1.23.75.88.75.75.92 1.25 1.24.73a6.17 6.17 0 011.7-.41c.32 0 .93 1.06 1.47 2.17.65 1.32.15 2.08.26 3.9.1 1.8.57 1.73.21 2.4-.4.74-.88 1.8-1.9 1.8-.6 0-1.71-.4-2.13-.63l-2.08-1.14a4.45 4.45 0 01-1.2-.8c-.3-.49.23-.34-1.05.58-4.2 3.01-14 3.55-23.88 1.02-1-.25-3.49-.94-3.95-1.03-.75-.14-2.14-.68-3.45-1.33-.56-.29-1.15-.27-1.15.03 0 .13-.22.24-.5.24-.75 0-3.9 1.83-6.15 3.04-2.28 1.23-2.19 1.22-2.25-.13-.04-.83-.04-1.69-.61-2.78-1.14-2.19-1.98-3.1-.67-3.3 1.72-.25 3.87-1.88 4.69-3.3.86-1.52.92-1.68.58-2.92-1.2-4.44-5.32-5.72-8.47-2.58-.36.36-.95.01-1.17-.12-1.5-.95-9 2.01-14.79 5.82-4.24 2.8-6.6 5.77-7.4 7.78-.37.93-.95 1.5-1.26.69-.26-.68-.14-.93-.14-.22 0 .68 2.15 3.12 4.03 4.39a22.06 22.06 0 005.6 2.72c.51.14 1.2.6 1.27.77.07.17-.3.91-.73 1.37-.44.45-1.08.96-1.28 1.22-.2.26-.4.82-.75 1.24-.35.43-1.34 1.04-1.58 1.68-.24.63-.15 1.36-.23 1.43-.09.06-.79.67-1.13 1.53-.65 1.67-1.04 3.74-1.29 6.88-.16 2.13 1.17 2.18.2 2.42-.87.22-4.57 1.9-5.63 2.83-.86.75-3.07 3.2-4.04 4.47-.67.87-2 4.84-2 5.94 0 .45.12 1.38.28 2.06.75 3.25 6.7 6.17 10.11 4.98.6-.21 1.18-.39 1.3-.39.11 0-.14.6-.57 1.35-.68 1.22-.75 1.51-.65 2.84.27 3.53 1.04 5.22 3.1 6.76.84.64 1.79 1.26 2.1 1.37.3.12 1.14.5 1.86.84 1.64.77 5.81 1.5 8.7 1.51 4.44.03 7.16-.64 9.8-2.43.6-.4 1.69-1.07 2.42-1.46a10.2 10.2 0 004.3-3.9c.87-1.31 1.14-1.59 1.21-1.22.06.27.24.65.4.85.18.2.39.59.47.87.2.63 1.5 1.84 2.6 2.4.44.22.98.54 1.17.71.2.17 1.13.54 2.06.84.93.29 2.18.7 2.78.92 1.63.59 10.02.58 11.73 0 .67-.23 2.32-.76 3.67-1.17 3.92-1.18 5.74-2.64 6.51-5.22.36-1.2 1.54-3.71 1.85-3.95.1-.07.2-.43.24-.8.05-.67.76-1.34 1.82-.93 1.83.7 3.91 1.34 5.26 2.82a56.1 56.1 0 015.58 8.1c.74 1.42.45 1.73.46 3.97 0 2.02.17 2.8-.38 3.76-1.06 1.86-2.72 3.4-6.52 5-2.79 1.17-6.7 2.53-6.6 2.19.05-.15.65.3 0 0-.68.36-9.96 2.3-14.58 3.41-8.58 2.06-17.62 3.48-23.67 3.73l-4.72.21c-.86.04-3.05 0-4.86-.1zm45.55-86.13c.84-.5.6-.52.35-1.48a1.37 1.37 0 00-1.36-1.1c-.22 0-.15.05-.56.4-.6.49-.63.75-.63 1.48s-.02.06.57.55c.9.75.6.78 1.63.15zm-79.65 77.04c-.3-.39-.3-.4.09-.1.23.19.42.38.42.43 0 .2-.2.07-.51-.33zm26.91-16.22l-2.26-.42-1.54-1.53a12.45 12.45 0 01-1.92-2.3 6.02 6.02 0 01-.21-3.44c.2-1.03-.5-2.2 2.7-.93 2.88 1.14 5.65 2.92 8.57 3.4 1.92.31 9.21.58 9.75.44.32-.08-.12 1.15-.56 1.92-.31.57-1.08.98-3.05 1.99L104.69 89l-3.3.2c-1.97.13-4.2-.43-5.55-.68zm31.87-1.2c-2.86-.72-4.37-1.48-5.4-2.74-.5-.61-1.03-1.56-.96-1.67.08-.12 1.25-.29 2.35-.38 2.47-.19 6.68-1.34 9.25-2.2 1.72-.57 2.43-.47 6.09-.57 2.26-.05 5.05.37 5.98.48 1.53.18 1.76-.24 1.76.24 0 .33-.88 1.99-2.13 3.45-1.58 1.86-2.36 2.57-3.38 3.08-1.32.65-1.39.66-6.53.71-4.4.04-5.48-.02-7.03-.4zm-46.34-10.8a1.57 1.57 0 01-.79-.4c-.52-.63-1.22-3.14-1.22-4.35.01-1.07.26-1.8 1.22-3.06.75-1 2.35-1.98 2.35-1.98 1.83-.56 2.29-1.15 2.15-.23-.14.97 0 4.05.84 6.67.65 2.02 1.36 1.76 1.05 2.16-.68.87-4.33 1.45-5.6 1.2zm12.5-37.2c-2.95-.22-4.08-.52-5.49-1.49-1.32-.9-1.46-1.16-.87-1.63l2.15-1.73c3.33-2.69 9.32-6.44 11.9-7.45 1.93-.75 3.39-.8 4.22.5.45.7 1.05 1.24 1.87 1.68 1.13.62 1.04 1.5.54 1.7-.31.14-1.77 2.5-2.36 3.52-.4.68-.65 1.11-.79 2.12l.68 1.85-2.44.4c-1.87.31-5.1.84-9.41.53zm10.42-16.07c0-.28.06-.34.14-.15.07.18.06.39-.02.47-.08.08-.13-.07-.12-.32z"/>
    <path fill="#1e79a0" d="M108.33 32.16c.18-.07.39-.06.47.02.08.08-.07.14-.32.13-.28-.02-.34-.07-.15-.15z"/>
    <path fill="#010101" d="M174.76 182.83c-3.76-.17-5.32-.4-11.9-1.8-3.5-.73-7.69-1.99-10.49-3.13l-2.03-.83 1.11-.01c.71 0 1.76.25 2.9.72 3.57 1.47 10.83 3.23 16.06 3.88 2.74.34 10.11.67 10.4.46.13-.1 1.44-.36 2.9-.6 6.59-1.02 10.65-2.45 12.34-4.33.53-.6 1.3-1.63 1.7-2.3.5-.87.86-1.21 1.25-1.21h.53l-.52.9c-.86 1.49-2.57 3.63-3.4 4.24-1.24.93-3.65 1.94-6.1 2.55-3.13.8-8.8 1.73-10.06 1.67l-4.69-.21zm-12.06-38.64c.5-.16 1.27-.16 2.3 0l1.54.24h-2.3c-1.87 0-2.15-.04-1.54-.24zm32.98-2.04a51.26 51.26 0 00-4.65-3.17 6.66 6.66 0 01-1.63-1.07c0-.34 1.23-.17 2.16.3 1.06.54 7.45 5.25 7.96 5.87.3.36.27.4-.24.38-.32-.01-1.9-1.02-3.6-2.3zm-140.1-9.64c-.36-.36-.15-1.05.32-1.05.35 0 .48.16.48.6 0 .57-.44.81-.8.45zm128.9-12.39c-.24-.4-.38-.72-.32-.72s.28-.06.48-.14c.24-.1.5.1.75.6.48.91.47.99-.06.99-.23 0-.62-.33-.86-.73zM65.95 101.5c-.38-.7-.86-1.46-1.06-1.69-.33-.37-.33-.42.01-.42.36 0 1.7 1.64 2.33 2.83.24.47.22.55-.15.55-.27 0-.69-.48-1.13-1.27zm-5.8-15.41c-.25-2.42-.2-3.58.18-3.58.24 0 .36.56.46 2.1.08 1.17.22 2.3.3 2.54.13.31.05.42-.3.42-.4 0-.5-.22-.63-1.48zm-.87-16.13c0-.26.16-.48.36-.48.2 0 .36.22.36.48 0 .27-.16.49-.36.49-.2 0-.36-.22-.36-.49zm77.38-55.47c-.26-.17.16-.08 1.02-.07.9 0 .47-.29.1-.13-.65.28-.68.48-1.12.2z"/>
    <path fill="#0b281d" d="M198.89 144.28a28.32 28.32 0 01-3.36-2.27 49.3 49.3 0 00-4.47-3.03c-.82-.47-1.35-.8-1.51-.94l-.15-.14.08-.07c.16-.14.8-.08 1.43.13.39.13.65.26 1.1.54 1.35.85 5.64 4.01 7.05 5.2.39.32.66.63.62.7-.01.02-.13.04-.26.04-.2 0-.27-.02-.53-.16z"/>
    <path fill="#0b281d" d="M165.54 145l-1.56-.09a4.98 4.98 0 01-.9-.21l-.63-.16a28.94 28.94 0 01-6.83-2.49 59.51 59.51 0 00-9.07-3.56c-1.77-.5-2.08-.54-6.5-.6a1515.66 1515.66 0 00-18.96.07l-.73.02v-.67l.42-.02c3.94-.2 11.93-.34 16.95-.27 4.29.06 5.83.13 6.96.34 2.16.4 6.6 1.86 9.23 3.05.6.27.96.45 1.5.77.63.36 1.13.48 1.46.32.08-.03.27-.18.42-.32.36-.33.58-.5 1.22-.93 1.9-1.26 4.88-2.9 6.2-3.43 2.78-1.08 6.34-1.7 10.78-1.9a81.2 81.2 0 016.57.08c1.1.07 1.45.13 2.3.4.71.22 1.05.18 1.28-.15.45-.65.8-2.14.94-3.9a27.15 27.15 0 00-1.07-8.73l-.12-.35h1.28l.11.46c.44 1.85.7 3.45.87 5.2.07.86.09 3.34.01 4.02a13.06 13.06 0 01-.53 2.78c-.19.6-.26 1.06-.17 1.08.4.1 1.14.44 2.15.97 1.07.57 2.15 1.2 2.1 1.24l-.2-.06c-.53-.2-1.32-.3-1.54-.18-.14.07-.13.16.06.3.1.08.15.13.13.13-.1 0-1.35-.56-2.13-.95a8.07 8.07 0 00-2.16-.74c-.37-.06-.54-.12-.73-.27a1.04 1.04 0 00-.33-.15c-.4-.1-1.42-.2-2.88-.27-7.43-.34-12.3.16-16.35 1.67-1.23.46-2.33 1-4.1 2.01-2.35 1.35-3.15 1.93-3.24 2.36-.04.23.35.53 1.12.85.93.4 2 .7 3.87 1.08l1.17.23-.3.02-.3.02.31.01c.41 0 1.17.1 1.93.21l.63.1-.84.02a109.9 109.9 0 004.18-.07c2.09-.19 3-.23 3.06-.14.1.16-.76.36-2.57.6-2.08.28-2.46.3-4.47.2zm-2.15-.59zm-.82-.03c-.06-.01-.11-.03-.11-.05 0-.03.22-.12.43-.17l.14-.04-.15.02c-.17.02-.5.15-.5.2 0 .03.08.06.2.05h.1l-.11-.01zm.68-.28c-.03-.01-.1-.01-.14 0-.04 0-.01.01.06.01.08 0 .12 0 .08-.01zM185.08 120.73c-.2-.13-.42-.35-.58-.6a3.42 3.42 0 01-.33-.68c0-.04.36-.15.56-.18.18-.02.32.09.51.38.2.3.43.8.46.96.03.17-.05.22-.29.22a.53.53 0 01-.33-.1zM61.03 48.57c.33-1.13.72-2.14 1.37-3.53a190.8 190.8 0 014.41-8.63c.1-.18.24-.37.3-.42.1-.08.14-.16.18-.32.07-.26.16-.43.71-1.27a87.66 87.66 0 003.18-5.31c.09-.16.27-.43.4-.6.13-.16.38-.5.55-.75l.62-.82c.37-.46.5-.64.59-.85.08-.17.41-.59 1.03-1.27.56-.62 1.24-1.45 1.9-2.3a29.92 29.92 0 012.57-2.97c.44-.45.63-.6.77-.67.26-.13.8-.6 1.92-1.67a28.09 28.09 0 013.06-2.63c.39-.28.9-.55 1.02-.55.06 0 .13-.05.22-.14.34-.38.42-.45.76-.62.19-.1.62-.3.96-.43.7-.29 1.7-.76 2.1-1 .78-.48 1.67-.83 3.64-1.46 1.15-.37 1.9-.64 2.71-.96 1.01-.4 2.01-.69 4.73-1.32 5.68-1.32 6.02-1.37 11.4-1.53 3.54-.11 4.37-.13 6.07-.14h1.74l.65.1c.36.07 1.23.2 1.94.3 2.11.28 3.26.49 3.52.62l.36.2c.33.18.6.28 1.12.42 1.03.27 2.08.4 4 .47 1.02.04 1.56.08 2.03.16.43.07.57.13.77.29l.6.45c.84.61 1.36 1.24 1.68 2.04.04.1.11.42.17.71l.16.7c.09.25.29.45.76.73.58.33 1.02.6 1.25.76.1.07.29.16.4.19l.92.29.7.23v.66l-.01.66a32.45 32.45 0 01-3.56-1.6c0-.04-.03-.06-.23-.1-.11-.02-.16-.09-.06-.09.03 0 .13-.03.22-.08.12-.06.25-.09.47-.1.16 0 .33-.04.38-.06.08-.04.08-.05.02-.1-.1-.06-.3-.05-.5.04-.17.08-.2.09-.7.07l-.51-.01-.17-.17c-.37-.36-.54-.78-.59-1.43-.05-.65-.16-.9-.66-1.47a5.56 5.56 0 00-3.17-1.82 6.45 6.45 0 00-2.58.19c-.7.2-1.04.15-1.93-.25a13.7 13.7 0 00-4.26-1.33l-1.84-.28c-1.36-.2-1.8-.23-3.99-.23-3.96 0-9.08.28-11.64.64-.62.09-.7.1-2 .42l-2.23.52c-1.73.4-2.84.71-4.94 1.38-2.78.9-5.16 1.8-5.78 2.18-.45.29-1.15.6-1.85.85-.72.24-1.4.6-2.55 1.38a31.18 31.18 0 00-3.9 3.05 66.1 66.1 0 01-2.14 1.88c-.78.65-1.65 1.6-2.51 2.7a77.93 77.93 0 01-3 3.7c-.57.67-1.1 1.33-1.7 2.13-.74.98-1.2 1.72-1.68 2.67a23.8 23.8 0 01-1.58 2.73 54.28 54.28 0 00-3.3 5.77c-.84 1.63-1.2 2.3-1.44 2.57-.29.35-.89 1.42-1.76 3.15-.75 1.5-1.2 2.56-1.5 3.52l-.08.27h-.85l.16-.51z"/>
    <path fill="#0b281d" d="M87.92 48.5c.34-.75.55-1.16.91-1.7.55-.81 1.24-1.65 2.17-2.61.7-.74 1-1.18.93-1.35-.05-.1-.26-.25-.62-.43a8.04 8.04 0 00-1.08-.45 25.5 25.5 0 01-5.7-3.18 14.82 14.82 0 01-3.37-3.6c-.17-.33-.04-.78.21-.78.1 0 .26.17.36.37.52 1.1 3.15 3.65 4.72 4.57 1.14.67 2.81 1.55 3.64 1.9.62.28 1.54.57 2.44.8.97.23 2.18.56 2.78.75.81.25 1.34.36 2.35.48 2.7.34 7.31.4 10.6.13.76-.07 1.59-.17 2.2-.27a6.26 6.26 0 001.73-.5c.55-.25.96-.4 1.07-.4.16 0 1.32-.67 2.56-1.47 1.63-1.05 2.74-1.64 3.1-1.64.41 0 2 .38 6.96 1.67 3.93 1.03 4.26 1.11 5.26 1.28 1.11.18 2.1.27 4.6.39 6.06.29 12.8-.23 15.82-1.23 1.8-.6 3.73-1.63 5.16-2.76.94-.75 1.43-1.33 1.44-1.71 0-.2-.05-.3-.22-.4-.21-.12-.33-.15-.84-.18-.61-.04-.76-.09-1.09-.35a18.94 18.94 0 00-2.5-1.5c-.56-.3-.7-.34-.9-.3-.15.02-.75.38-1.27.76a6.35 6.35 0 01-2.68 1.18c-.73.17-1.2.3-1.44.42-.53.28-1.86.41-5.94.62-1.69.08-4.14.08-5.05 0a75.42 75.42 0 01-11.42-2.07c-2.61-.75-4.8-1.63-5.2-2.08-.1-.1-.1-.12-.05-.18.17-.18.62-.1 1.4.27 1.24.58 2.61 1.07 3.6 1.29 1.1.23 2.09.46 3.47.8a35.5 35.5 0 007.25 1.22c.93.05 5.57.05 6.68 0 3.2-.18 5.2-.48 6.94-1.05a8.5 8.5 0 002.83-1.5c.5-.37.73-.51.99-.6.24-.07.35-.03.38.15.04.22.35.44 1.68 1.19.5.27 1.05.59 1.23.7a5.6 5.6 0 002.09.66c.55.08.88.06 1.06-.06.15-.1.56-.7.74-1.06.2-.43.23-.58.22-1.54 0-1.35-.11-2.72-.27-3.45a7.22 7.22 0 00-.8-1.91 30.5 30.5 0 01-.72-1.41c-.1-.12-.27-.08-.85.21-.86.44-1.24.48-1.76.22a3.71 3.71 0 01-1.25-1.22c-.1-.23-.1-.62.04-1.47l.1-.69-.85-.48a25.71 25.71 0 01-3.4-2.33c-.79-.62-1.5-1.07-2.23-1.43-.77-.38-1.16-.54-3.53-1.42a73.36 73.36 0 01-7.1-2.9c-.1-.04-.14-.08-.12-.1.02 0-.04-.04-.14-.06-.1-.02-.18-.05-.18-.07 0-.06.43-.19.71-.21.36-.04.45-.06.45-.12 0-.12-.27-.12-.52 0-.17.08-.2.08-.7.07l-.51-.02-.17-.17a1.95 1.95 0 01-.59-1.39c-.01-.23-.05-.5-.08-.59-.09-.3-.3-.6-.73-1.06a5.34 5.34 0 00-2.34-1.5 5.82 5.82 0 00-3.19 0c-.33.08-.5.1-.77.1-.43 0-.59-.04-1.59-.5a14.47 14.47 0 00-4.36-1.24l-1.59-.24c-.87-.14-1.17-.16-2.4-.2a112.07 112.07 0 00-6.2.11c-2.93.13-5.98.38-7.25.6a34 34 0 00-1.49.33l-2.3.54c-1.72.4-3.1.78-5.08 1.43-2.91.94-5.03 1.75-5.64 2.13-.46.29-1.14.6-1.87.85-1.53.53-4.17 2.36-6.56 4.54a83.7 83.7 0 01-2.17 1.9c-.22.2-.61.57-.86.83l-.45.47v-1.76l.31-.3c.18-.16.4-.34.52-.4.28-.15.7-.52 1.76-1.52a29.63 29.63 0 012.87-2.53c.66-.5 1.06-.72 1.4-.8.05 0 .14-.07.2-.15.28-.38.63-.6 1.72-1.04.7-.28 1.62-.72 2-.95a14.8 14.8 0 013.08-1.3c1.38-.44 2.49-.82 3.2-1.1a27.3 27.3 0 014.4-1.26c5.43-1.28 6.36-1.43 9.35-1.56 2.12-.09 6.3-.2 8.39-.23a12.1 12.1 0 012.08.03c.37.08 1.42.24 2.7.41 2.18.3 3.1.48 3.43.69.87.53 2.41.85 4.6.95 2.06.1 2.63.15 3.08.27.16.04.29.11.52.3l.6.43c.35.26.8.7 1.05 1.02.38.5.59.99.72 1.68.1.6.19.83.35 1.01.1.1.38.3.83.57.38.22.8.48.93.57.17.1.34.19.53.24.45.13 1.15.36 2.5.86a73.16 73.16 0 017.53 3.09c.75.38 1 .54 1.34.85.17.15.54.44.83.64l1.06.78c.58.43 1.17.82 2.09 1.36.93.55 1.91 1.23 2.76 1.9 1.2.98 2.08 1.88 2.08 2.15 0 .15.1.32.19.35.28.07.59.75.93 2.06.44 1.73.72 3.96.63 5-.18 1.94-1.57 3.91-4.03 5.73-.9.68-1.72 1.17-3.09 1.88-1.22.64-1.74.92-2.06 1.12-.42.28-.47.29-1.78.38-.6.04-1.86.2-2.94.36-2.14.34-4.2.44-8.73.44-4.6 0-6.94-.14-8.79-.52-.96-.2-1.44-.34-3.22-.96a34.6 34.6 0 00-3.29-.93l-2.82-.69-1.63-.4-1 .68a24.87 24.87 0 01-7.14 3.36c-.8.17-1.93.32-3.16.4-2.42.18-7.36-.02-11-.43a15.36 15.36 0 01-2.53-.44l-.82-.22-.31.33a23.62 23.62 0 00-3.76 4.85l-.3.53h-1.31z"/>
    <path fill="#0b281d" d="M137.75 14.32c.15-.07.35-.08.43-.03.07.04-.17.1-.4.1h-.17zM136.78 14.5l-.19-.09h.72l.12.03-.17.08c-.23.1-.25.1-.48-.01zM147.36 28.84a4.5 4.5 0 01-1.13-.74c-.6-.59-.73-1.4-.36-2.12.23-.46.6-.8 1.2-1.09.3-.15.34-.16.6-.16.24 0 .33.02.56.12.72.3 1.19.78 1.37 1.4.07.24.07.73 0 .98-.09.28-.28.63-.47.84-.33.37-1.05.8-1.41.82a.72.72 0 01-.36-.05z"/>
    <path fill="#0b281d" d="M147.34 28.83a3.8 3.8 0 01-1.25-.87c-.32-.4-.44-.79-.41-1.26.04-.75.48-1.34 1.32-1.78.36-.19.37-.2.66-.2.26 0 .33.02.57.12.72.31 1.19.8 1.37 1.4.07.25.07.74 0 .99a2.41 2.41 0 01-1.37 1.49c-.4.2-.61.22-.89.1zM59.44 70.31c-.24-.25-.11-.8.19-.8.23 0 .35.16.35.45 0 .39-.31.59-.54.35zM60.58 87.5c-.22-.12-.3-.43-.43-1.72-.2-2.09-.14-3.25.17-3.25.25 0 .35.5.48 2.22.09 1.19.18 1.94.28 2.35.07.29.07.37-.04.41a.72.72 0 01-.46-.01zM178.3 182.96l-2.23-.1a47.62 47.62 0 01-7.48-.7c-1.33-.23-4.42-.85-6.32-1.27a73.42 73.42 0 01-8.33-2.42c-.72-.25-1.17-.43-2.99-1.17l-.46-.19.46-.02c1.07-.05 1.88.12 3.48.75 3.45 1.36 9.34 2.84 14.33 3.6a70.02 70.02 0 0010.51.74c1.42 0 1.45 0 1.65-.08.28-.1 1.34-.31 2.87-.56 1.6-.27 2.57-.45 3.6-.67 3.88-.83 6.5-1.84 8.05-3.08.65-.53 1.46-1.53 2.32-2.88.39-.61.58-.86.79-1.03.18-.14.34-.18.66-.17l.27.01-.35.61c-1.13 1.94-2.82 4.01-3.8 4.66-1.36.9-3.62 1.81-5.92 2.39a73.4 73.4 0 01-9.36 1.62c-.28.01-.92 0-1.74-.04z"/>
    <g clip-path="url(#j)" transform="scale(-1 1) rotate(8.44 288.99 -594.27)">
      <path id="b" fill="#0b281d" stroke-width=".24" d="M93.75 186.33c-7.04-.76-11.33-1.86-16.64-4.3-2.16-.98-5.77-2.52-8.03-3.4-4.7-1.85-9.76-4.3-11.58-5.61a87.04 87.04 0 01-7.4-6.34c-1.67-1.69-4.3-5.38-5.03-7.06-.5-1.17-.54-1.5-.41-4.38a29.9 29.9 0 011.36-8.2c.69-2.28 1.13-3.13 3.44-6.53 2.4-3.54 3.75-5.1 5.2-6 1.4-.88 1.32-.79 1.09-1.16-.4-.63-.52-2.86.16-2.76.46.07 1 2.34 1.2 2.79.36.89 2.85 2.7 6.27 4.55 5.19 2.81 7.55 3.67 11.14 4.03.87.09 2.11.31 2.77.5 2.57.73 12.31 1.1 15.37.6.73-.13 2.14-.3 3.14-.4a11.2 11.2 0 003.63-.95c5.87-2.58 7.75-3.09 13.78-3.72 1.27-.13 3.17-.34 4.24-.47 4.56-.56 23.21-.74 26.76-.26 2.56.34 9.07 2.59 11.12 3.83 1.02.63 1.47.63 2.03 0 .51-.56 3.5-2.38 6.04-3.69 3.33-1.71 8.68-2.6 15.23-2.54 2.92.04 4.66.16 5.3.38 1.35.47 1.58.41 1.96-.5 1.04-2.47.94-7.24-.22-11.6-.32-1.2-1.67-4.31-1.62-4.36.05-.05 1.46 1.57 1.78 1.65.52.13.66.93 1.12 2.9 1.02 4.38 1.09 8.86.19 11.47-.2.55-.25 1-.14 1 .46 0 4.46 2.15 4.36 2.32-.3.48-.32.9-3.94-.9-.9-.45-1.89-.7-2.11-.7-.23 0-.55-.13-.72-.3-.2-.2-1.71-.34-4.94-.44-7.98-.24-13.12.66-17.43 3.06-3.25 1.8-4.37 2.57-4.46 3.04-.09.45 1.85 1.26 4.19 1.73 1.41.3 5 .97 4.29 1.2-1.37.47-5.99-.48-9.77-2.33a60.62 60.62 0 00-10.35-4.1c-1.75-.48-2.35-.5-13.68-.49-6.52.01-12.56.07-13.42.14-2.84.23-12.19 1.61-13.47 2-.69.2-1.34.35-1.45.32-.1-.02-.47.07-.8.2l-1.51.64c-1.01.42-1.53 1.27-1.3 2.15.07.32 1.04 1.39 2.13 2.37 1.1.99 3.36 3.2 5.03 4.9a81.95 81.95 0 004.48 4.32c.8.66 2.19 1.89 3.09 2.72.9.84 2.48 1.98 3.5 2.54a24.4 24.4 0 012.84 1.79 28.87 28.87 0 006.2 3.56c1.14.49 3.48 1.58 5.2 2.43 1.7.84 3.82 1.85 4.68 2.22.87.38 1.96.92 2.44 1.22a78.38 78.38 0 009.15 4.34l4.12 1.6-.4.1c-1.58.43-6.25-1.34-10.48-3.68-2.83-1.56-3.38-1.77-3.38-1.27 0 .87-5.14 5.37-7.62 6.68-1.91 1-5.83 2.76-7.37 3.29-.87.3-2.39.88-3.39 1.29-4.02 1.64-6.88 2.22-14.54 2.92-3.91.36-6.56.29-12.42-.35zm15.67-.97c6.32-.69 11.9-2.5 20.27-6.63 3.5-1.72 8.83-6.13 8.63-7.16-.08-.44-2.5-1.97-3.13-1.99-.8-.02-11.74-5.4-13.27-6.52a54.44 54.44 0 00-3.5-2.31 33.96 33.96 0 01-4.33-3.35 3636.52 3636.52 0 01-7.7-7.04c-.37-.33-.67-.68-.67-.77 0-.1-.54-.72-1.2-1.37a7.28 7.28 0 01-1.22-1.4c0-.33.52.2.15.2-.6 0-3.54-3.01-3.54-3.66 0-.78-.5-.92-1.74-.48-1.84.65-4.86.93-10.27.95-5.84.03-7.45-.07-10.48-.64a22.67 22.67 0 00-2.9-.4c-.46 0-2.24-.42-3.95-.94a42.32 42.32 0 01-11.14-5.64c-1.25-.9-2.15-1.37-2.6-1.37-.38 0-.69.09-.69.2 0 .1-.43.38-.95.6-1.2.53-2.26 1.8-5.06 6.02-2.44 3.68-3.45 6.24-3.94 9.94a12.52 12.52 0 01-.47 2.35c-.12.23-.22 1.3-.22 2.36 0 2.17.42 3.25 2.5 6.31 1.34 2 6.91 7.27 9.83 9.31a51.38 51.38 0 0011 5.37c.54.16 3.6 1.47 6.79 2.9 5.75 2.59 6.5 2.84 12.83 4.3 1.22.29 3.72.63 5.56.77 1.85.14 3.4.3 3.46.36.26.26 8.85.07 11.95-.27zm67.6-2.45c.17-.07.38-.06.46.02.08.08-.06.14-.32.13-.28-.01-.34-.07-.15-.15zm21.56-9.42c.14-.2.68-1.25 2.66-3.92 3.63-4.92 5.35-9.2 5-12.5-.3-2.87-3.2-8.39-5.84-11.08-1.07-1.1-2.54-2.27-2.22-2.27.25 0 1.58.66 1.5.54-.08-.13-.97-.76-.64-.6.8.41 3.87 3.3 4.9 4.93 4.4 6.93 4.63 10.84 1 17.48a69.56 69.56 0 01-5.47 7.85c-.55.63-1.66.75-1.41.38zm-34.32-28.54a3.36 3.36 0 01-1.45-.36c-.07-.07 1.96-.24 4.51-.2 2.55.04 6-.59 5.18-.04-.43.28-4.73.75-4.99.74zM55.08 131.08c-.52-1.34.35-5.33 2.12-9.79a27.63 27.63 0 001.12-3.13c0-.18.43-1.17.97-2.2.53-1.03.96-2.02.96-2.21 0-.45 2.83-4.76 4.15-6.33.7-.82 1.42-1.4 2.14-1.67.6-.23 1.13-.45 1.17-.48a3.2 3.2 0 00-.54-.98c-.79-1.15-3.49-5.34-2.72-5.34.33 0 3.3 3.91 3.3 4.04 0 .76 3.26 4.2 4.71 4.97.27.14 1.8 1.01 3.4 1.93 3.24 1.87 3 1.77 8.82 3.74 5.09 1.72 7.12 2.06 13.78 2.27 2.73.1 5.72.27 6.65.4 4.68.64 13.79 1.08 14.04.68.07-.12.93-.21 1.91-.2 2.34 0 3.92-.24 4.83-.77.91-.52 4.66-1.85 6.17-2.17 1.1-.24 7.03-2.56 9.81-3.85.8-.36 2.87-1.13 4.6-1.7a35.6 35.6 0 003.86-1.45c.4-.23 1.55-.66 2.55-.95 1-.3 3-1.03 4.47-1.63 3.99-1.65 5.42-2.76 6.46-5 .46-1 .55-1.6.55-3.62 0-2.26-.05-2.5-.81-3.98a47.2 47.2 0 00-5.38-7.58 8.9 8.9 0 00-5.99-2.92c-.85-.06-1.72-.15-1.93-.22-1.18-.36-7.18-.85-10.45-.85-3.73 0-3.8 0-7.56 1.07a53.18 53.18 0 01-6.75 1.45c-1.63.2-4.05.53-5.38.73-3.39.48-11.21.67-15.21.37-5-.39-7.16-.92-12.48-3.09-2.2-.9-2.35-1.01-3.43-2.48-.62-.86-1.4-1.83-1.72-2.16-.64-.65-1.7-3.53-2.22-6.03-.36-1.68-.18-8.33.34-13.02.37-3.37.85-5.19 1.83-6.98.18-.34.55-1.14.82-1.77a15 15 0 013.1-4.18c.44-.43.8-.93.8-1.1 0-.18-.71-.57-1.57-.87a24.36 24.36 0 01-5.84-3.22c-1.43-1.05-3.48-3.35-3.48-3.9 0-.64.47-.72.7-.13.38.94 3.23 3.7 4.67 4.53 3.05 1.74 4.2 2.25 5.99 2.68 1.12.26 2.53.65 3.14.85 3.04 1.03 14.35.93 16.46-.15a4.8 4.8 0 011.26-.48c.17 0 1.38-.7 2.7-1.57 1.3-.86 2.61-1.56 2.9-1.55.5 0 2.4.47 9.22 2.26 3.05.8 3.84.92 7.98 1.1 5 .23 10.69-.11 14.15-.86 2.2-.48 4.72-1.71 6.57-3.2 1.78-1.45 1.82-2.2.1-2.2-.29 0-.64-.11-.77-.24a15.4 15.4 0 00-3.4-1.94c-.17 0-.81.38-1.4.83a6.2 6.2 0 01-2.49 1.11c-.77.16-1.5.37-1.64.48-.32.25-2.37.44-6.67.62-2.9.12-4.17.06-7.06-.36a61.9 61.9 0 01-3.85-.63 26.4 26.4 0 00-2.13-.45c-3.11-.57-7.97-2.31-7.98-2.86 0-.25.64-.23 1.15.03 1.23.62 2.97 1.27 3.93 1.45.6.11 1.96.42 3.02.69a36.02 36.02 0 0011 1.38c6.98 0 10.86-.75 13.02-2.52.89-.73 1.5-.93 1.5-.5 0 .14.52.52 1.15.86.63.34 1.47.82 1.87 1.06.4.24 1.24.5 1.86.59 1.1.14 1.15.11 1.67-.72.48-.78.52-1.08.4-3.2-.11-2-.24-2.55-.86-3.71-.4-.75-.77-1.5-.83-1.67-.09-.25-.28-.22-.85.1-1.05.6-1.69.53-2.52-.3-.67-.66-.72-.83-.58-1.79l.16-1.05-1.28-.74c-.7-.4-1.93-1.25-2.73-1.9-1.55-1.24-2.4-1.7-4.8-2.58a93.26 93.26 0 01-7.04-2.76l-1.43-.67.73-.26c.6-.2.99-.17 2.64.42 5.14 1.81 9.3 3.57 10.05 4.31.21.22.64.55.94.75.3.2.83.59 1.18.86.35.28 1.18.81 1.84 1.19 2.18 1.24 4.96 3.57 4.96 4.15 0 .18.08.32.18.32.61 0 1.64 4.46 1.57 6.83-.07 2.74-2.74 5.67-7.2 7.9a19.3 19.3 0 00-2.16 1.2c-.12.13-.64.23-1.14.23-.5 0-2.08.19-3.52.42-2 .32-4.06.42-8.77.42-6.55 0-8.52-.24-11.6-1.4-.74-.26-2.15-.68-3.15-.91l-3.34-.8-1.53-.39-1.5 1.02c-1.82 1.23-5.23 2.76-6.84 3.06-2.47.47-5.2.54-9.77.28-2.6-.15-5.35-.44-6.13-.64l-1.41-.36-.64.69a20.54 20.54 0 00-4.27 6.16 22.96 22.96 0 00-1.42 3.9c-.52 2.39-.9 7.07-.96 11.58-.04 3.44.02 4.06.52 5.65.61 1.94.7 2.1 2.65 5.01l1.33 1.98 2.93 1.32c4.95 2.22 7.7 2.77 14.78 2.98 7.66.21 17.6-.85 23.1-2.49 1.66-.49 3.56-.98 4.22-1.08 2.5-.39 7.48-.23 12.94.4 6.72.77 7.79 1.14 10.15 3.48 1.94 1.91 5.25 6.55 6.2 8.68.63 1.42.7 1.82.7 4.1-.02 2.12-.11 2.75-.6 3.86a8.86 8.86 0 01-1.05 1.87l-.48.54.82.33c1.29.51 6.38 2.44 9.05 3.42 3.02 1.1 4.02 1.69 6 3.5 1.76 1.61 3.92 4.94 5.11 7.91.6 1.49 1.7 3.06 1.41 3.24-.58.37-1.8-1.1-2.72-3.23-.94-2.15-3.28-6-3.65-6-.12 0-.22-.15-.22-.34 0-.51-2.71-3.03-3.27-3.03-.5 0-5.16-1.65-10.34-3.64-1.7-.66-3.3-1.2-3.57-1.2s-1.05.33-1.75.72c-1.61.9-5.83 2.58-7.01 2.8-.5.09-.9.26-.9.37 0 .12-.26.22-.57.22-.75 0 .64-.54.64-.28 0 .11-3.87 1.53-4.37 1.6-.5.09-1.26.31-1.7.5-.44.2-1 .35-1.27.35-.26 0 .47-.18.47-.06 0 .11-1.25.56-1.61.66-.37.09-2.1.8-3.87 1.6a79.46 79.46 0 01-7.13 2.65 77.9 77.9 0 00-5.5 1.91 18.69 18.69 0 01-5.93 1.56 86 86 0 01-12.9-.22c-1.82-.2-5.7-.48-8.63-.63-5.94-.3-10.16-.75-10.94-1.16-.28-.16-.79-.28-1.13-.28-.34 0-.62-.1-.62-.2 0-.26-4.06-1.49-4.92-1.49-.36 0-.64-.1-.64-.24 0-.13.48.07.3.07-1.21 0-8.7-3.92-11.06-5.8-1.75-1.4-2.27-1.5-3.9-.83-1.08.44-3.98 3.55-4.33 4.63-.1.33-.44.98-.75 1.44-.3.47-.63 1.31-.72 1.88-.09.56-.26 1.02-.37 1.02-.3 0-1.3 2.06-1.76 3.6-.21.73-.5 1.39-.63 1.47-.73.45-2.49 7.25-2.38 9.18.08 1.33.08 3.25-.4 3.25-.29 0-.62-2-.7-2.2zm9.14-31.88c-.44-.3-1.91-3-2.46-4.52a39.9 39.9 0 01-1.5-6.63c0-.32-.65-5.24-.35-5.24.38 0 1.33 5.02 1.55 6.14.73 3.72 1.12 4.96 2.33 7.39.71 1.44 3.26 5.48 3.26 5.6 0 .25-2.47-2.5-2.83-2.74zm-31.5-15.51l-2.1-2.18-2.9 1.08-2.9 1.08-7.61-7.58-7.62-7.58 1.93-1.93 1.93-1.94-1.75-1.74-1.74-1.74-1.4 1.38-1.4 1.39-1.08-1.1L5 61.74l3.93-3.91 3.92-3.91 1.1 1.09 1.08 1.09-1.33 1.3-1.33 1.32 1.74 1.76 1.75 1.76 1.95-1.93 1.94-1.93 7.58 7.56 7.58 7.56-1 2.74c-.54 1.5-.99 2.85-.99 3 0 .14.88 1.12 1.96 2.18 2.17 2.13 2.54 2.76 2.12 3.56-.37.7-.68.88-1.5.89-.57 0-1.1-.41-2.79-2.18zm-4.63-4.3l1.81-.68.72-2.08.73-2.09-1.69-1.7-1.68-1.68-2.85 2.83-2.84 2.83 1.62 1.63c.9.9 1.8 1.63 2 1.62a15 15 0 002.18-.69zm-5.44-13.53l-3.03-3.02-2.84 2.83-2.83 2.83 3.01 3.02 3.02 3.02 2.85-2.84 2.84-2.83zm-4.06 3.9l-1.14-1.15 1.15-1.14 1.16-1.14 1.14 1.16 1.14 1.15-1.16 1.14-1.15 1.14zm41.17 12.77c-.25-4.35-.37-8.1-.5-9.93-.17-2.29-.24-2.8.25-2.68.63.16.72 1.62.95 8.04.14 4.17.61 8.79.22 8.89-.23.06-.92-4.23-.92-4.32zm-.77-15.9c-.14-4.65.62-12.61 1.58-16.46.73-2.9 1.11-3.83 3.55-8.68a69.8 69.8 0 012.94-5.5c.11-.05.2-.2.2-.32s.2-.52.46-.88c.75-1.1 2.8-4.47 3.18-5.24.2-.4.46-.84.6-1 .13-.14.4-.5.6-.8.2-.3.56-.76.79-1.03.23-.28.42-.57.42-.65 0-.09.45-.64 1-1.23.54-.6 1.44-1.67 1.99-2.4 1.23-1.64 3.07-3.62 3.34-3.62.12 0 1-.77 1.95-1.72 1.72-1.68 3.55-3.1 4.01-3.1.13 0 .3-.15.36-.33.07-.17.76-.56 1.54-.85.77-.3 1.8-.79 2.26-1.1.47-.3 1.83-.86 3.03-1.22 1.19-.37 2.62-.87 3.18-1.11a22.3 22.3 0 013.02-.92c7.94-1.86 7.18-1.75 14.1-1.97 3.6-.12 6.7-.16 6.9-.1.2.06 1.6.27 3.1.46 1.52.2 2.88.46 3.03.57.81.61 2.66.99 5.21 1.06 1.91.06 2.7.21 2.87.35l.41.33c.13.1.7.43 1.17.95.61.67.9 1.26 1.03 2.07.14.96.32 1.06.86 1.37 3.18 1.81 1.4 1.24.15 1.24-1.15 0-2.11-.79-2.11-2.1 0-.59-.24-1-.96-1.71a5.27 5.27 0 00-5.42-1.32c-.84.23-1.1.18-2.54-.5-.88-.43-2.31-.88-3.18-1-.86-.12-2.22-.33-3.02-.46-2.37-.4-13.56.1-15.96.7-1.06.27-2.75.66-3.75.88-2.69.6-9.2 2.8-10.1 3.41-.45.3-1.32.7-1.94.88-1.27.38-4.32 2.47-6.34 4.36-.73.68-1.8 1.62-2.38 2.08-.58.47-1.66 1.65-2.4 2.64-.75 1-1.8 2.3-2.34 2.92-.54.62-1.14 1.33-1.34 1.59a19.13 19.13 0 00-2.66 3.93c-.43.86-.97 1.84-1.2 2.18a53.07 53.07 0 00-3.65 6.28 16.49 16.49 0 01-1.46 2.61c-.12.05-.88 1.39-1.69 2.99a18.8 18.8 0 00-1.96 5.22A77.88 77.88 0 0060 65.91c.02 3.35.3 5.99-.56 5.67-.4-.14-.35-2.34-.44-4.94zm47.45-27.29c-1.73-.94-2.17-3.16-.97-4.84.27-.38.49-.77.49-.87 0-.22 1.95-2.6 2.23-2.71.32-.14.2-1-.14-1-.84 0-3.37-2.48-3.5-3.43-.03-.19.09.02 0-.08-.25-.24-.55-2.99-.29-3.15.12-.07.08.28 0 .03-.12-.35 1.09-2.16 1.12-2.1.18.35.02.28-.07.28-.28 0 .97-1.21 1.74-1.69 3.1-1.91 7.28-.08 8.24 3.6.78 3.02-1.4 6.14-4.76 6.8-.78.15-1.43.37-1.43.5a19 19 0 00.97 2.25c1.06 2.22 1.23 3.6.64 5.02-.65 1.55-2.73 2.23-4.27 1.4zm3.34-.64c.46-.32.53-.6.53-1.92 0-1.26-.14-1.85-.77-3.12-.43-.87-.9-1.58-1.05-1.58-.36 0-1.37 1.11-2.14 2.35-.9 1.46-.9 3.44 0 4.15.78.61 2.63.68 3.42.12zm-1.17-10.83c.64-.77-.3-1.95-1.14-1.43-.84.53-.54 1.78.42 1.78.24 0 .56-.15.72-.35zm3.37-2.4c.38-.2.82-.7 1-1.11.67-1.62-1.06-3.31-2.69-2.64-1.06.44-1.6 1.64-1.19 2.64.3.72 1.22 1.42 1.89 1.44.17 0 .62-.15 1-.34zm34.68 3c-1.4-.85-1.34-2.6.12-3.45.67-.4.9-.42 1.5-.17 1.84.76 1.88 2.9.08 3.83-.7.36-.8.35-1.7-.2z" clip-path="url(#k)" transform="translate(-67.38 51.5)"/>
    </g>
    <path fill="#211c1d" d="M130.74 86.83l3.08-4.53-3.62 4.22z"/>
    <path fill="#211c1d" d="M130.04 87.08l.03.03v.04l.03-.02.04.02v-.04l.02-.03h-.04l-.02-.04-.02.03zm-.6.94l.1-.73-.52-.54.73-.14.35-.65.36.65.72.13-.5.54.1.74-.67-.32-.67.32"/>
    <g clip-path="url(#l)" transform="matrix(.0142 0 0 -.0142 122.1 94.45)">
      <path fill="url(#m)" d="M568.85 564.72l13.2-24.07 27.05-4.96-18.8-20.04 3.6-27.22-24.84 11.68-24.75-11.86 3.42 27.27-18.93 19.88 26.96 5.18 13.09 24.14"/>
    </g>
    <path fill="#211c1d" d="M129.24 75.68l4.25 3.47-3.9-3.97z"/>
    <path fill="#211c1d" d="M129.06 74.97l-.04.03-.04-.01.02.03-.02.04h.04l.03.03v-.04l.04-.02-.03-.02zm-.89-.69l.72.16.58-.46.08.73.62.41-.68.3-.2.72-.5-.56-.73.04.37-.64-.26-.7"/>
    <g clip-path="url(#n)" transform="matrix(-.00125 .01415 .01415 .00125 122.42 66.4)">
      <path fill="url(#o)" d="M568.85 564.72l13.2-24.07 27.05-4.96-18.8-20.04 3.6-27.22-24.84 11.68-24.75-11.86 3.42 27.27-18.93 19.88 26.96 5.18 13.09 24.14"/>
    </g>
    <path fill="#211c1d" d="M126.17 79.45l5.39 1.04-5.32-1.66z"/>
    <path fill="#211c1d" d="M125.67 78.9l-.02.05h-.04l.03.03v.04l.04-.02.04.02-.01-.04.02-.04h-.04zm-1.1-.18l.7-.2.3-.68.41.61.74.07-.46.58.17.72-.7-.25-.63.38.02-.74-.56-.49"/>
    <g clip-path="url(#p)" transform="scale(.0142 -.0142) rotate(-66.72 90.3 -8812.84)">
      <path fill="url(#q)" d="M568.85 564.72l13.2-24.07 27.05-4.96-18.8-20.04 3.6-27.22-24.84 11.68-24.75-11.86 3.42 27.27-18.93 19.88 26.96 5.18 13.09 24.14"/>
    </g>
    <g>
      <path fill="#211c1d" d="M127.07 85.04l4.74-2.77-5.09 2.26z"/>
      <path fill="#211c1d" d="M126.34 84.97l.01.04-.02.03h.04l.03.03.01-.04.04-.01-.04-.03v-.04l-.03.03zm-.95.59l.4-.63-.23-.7.71.19.6-.44.04.74.6.43-.68.27-.23.7-.47-.56h-.74"/>
      <g clip-path="url(#r)" transform="matrix(.01283 .0061 .0061 -.01283 116 88.21)">
        <path fill="url(#s)" d="M568.85 564.72l13.2-24.07 27.05-4.96-18.8-20.04 3.6-27.22-24.84 11.68-24.75-11.86 3.42 27.27-18.93 19.88 26.96 5.18 13.09 24.14"/>
      </g>
    </g>
    <path fill="#0b281d" d="M93.75 186.33c-7.04-.76-11.33-1.86-16.64-4.3-2.16-.98-5.77-2.52-8.03-3.4-4.7-1.85-9.76-4.3-11.58-5.61a87.04 87.04 0 01-7.4-6.34c-1.67-1.69-4.3-5.38-5.03-7.06-.5-1.17-.54-1.5-.41-4.38a29.9 29.9 0 011.36-8.2c.69-2.28 1.13-3.13 3.44-6.53 2.4-3.54 3.75-5.1 5.2-6 1.4-.88 1.32-.79 1.09-1.16-.4-.63-.52-2.86.16-2.76.46.07 1 2.34 1.2 2.79.36.89 2.85 2.7 6.27 4.55 5.19 2.81 7.55 3.67 11.14 4.03.87.09 2.11.31 2.77.5 2.57.73 12.31 1.1 15.37.6.73-.13 2.14-.3 3.14-.4a11.2 11.2 0 003.63-.95c5.87-2.58 7.75-3.09 13.78-3.72 1.27-.13 3.17-.34 4.24-.47 4.56-.56 23.21-.74 26.76-.26 2.56.34 9.07 2.59 11.12 3.83 1.02.63 1.47.63 2.03 0 .51-.56 3.5-2.38 6.04-3.69 3.33-1.71 8.68-2.6 15.23-2.54 2.92.04 4.66.16 5.3.38 1.35.47 1.58.41 1.96-.5 1.04-2.47.94-7.24-.22-11.6-.32-1.2-1.67-4.31-1.62-4.36.05-.05 1.46 1.57 1.78 1.65.52.13.66.93 1.12 2.9 1.02 4.38 1.09 8.86.19 11.47-.2.55-.25 1-.14 1 .46 0 4.46 2.15 4.36 2.32-.3.48-.32.9-3.94-.9-.9-.45-1.89-.7-2.11-.7-.23 0-.55-.13-.72-.3-.2-.2-1.71-.34-4.94-.44-7.98-.24-13.12.66-17.43 3.06-3.25 1.8-4.37 2.57-4.46 3.04-.09.45 1.85 1.26 4.19 1.73 1.41.3 5 .97 4.29 1.2-1.37.47-5.99-.48-9.77-2.33a60.62 60.62 0 00-10.35-4.1c-1.75-.48-2.35-.5-13.68-.49-6.52.01-12.56.07-13.42.14-2.84.23-12.19 1.61-13.47 2-.69.2-1.34.35-1.45.32-.1-.02-.47.07-.8.2l-1.51.64c-1.01.42-1.53 1.27-1.3 2.15.07.32 1.04 1.39 2.13 2.37 1.1.99 3.36 3.2 5.03 4.9a81.95 81.95 0 004.48 4.32c.8.66 2.19 1.89 3.09 2.72.9.84 2.48 1.98 3.5 2.54a24.4 24.4 0 012.84 1.79 28.87 28.87 0 006.2 3.56c1.14.49 3.48 1.58 5.2 2.43 1.7.84 3.82 1.85 4.68 2.22.87.38 1.96.92 2.44 1.22a78.38 78.38 0 009.15 4.34l4.12 1.6-.4.1c-1.58.43-6.25-1.34-10.48-3.68-2.83-1.56-3.38-1.77-3.38-1.27 0 .87-5.14 5.37-7.62 6.68-1.91 1-5.83 2.76-7.37 3.29-.87.3-2.39.88-3.39 1.29-4.02 1.64-6.88 2.22-14.54 2.92-3.91.36-6.56.29-12.42-.35zm15.67-.97c6.32-.69 11.9-2.5 20.27-6.63 3.5-1.72 8.83-6.13 8.63-7.16-.08-.44-2.5-1.97-3.13-1.99-.8-.02-11.74-5.4-13.27-6.52a54.44 54.44 0 00-3.5-2.31 33.96 33.96 0 01-4.33-3.35 3636.52 3636.52 0 01-7.7-7.04c-.37-.33-.67-.68-.67-.77 0-.1-.54-.72-1.2-1.37a7.28 7.28 0 01-1.22-1.4c0-.33.52.2.15.2-.6 0-3.54-3.01-3.54-3.66 0-.78-.5-.92-1.74-.48-1.84.65-4.86.93-10.27.95-5.84.03-7.45-.07-10.48-.64a22.67 22.67 0 00-2.9-.4c-.46 0-2.24-.42-3.95-.94a42.32 42.32 0 01-11.14-5.64c-1.25-.9-2.15-1.37-2.6-1.37-.38 0-.69.09-.69.2 0 .1-.43.38-.95.6-1.2.53-2.26 1.8-5.06 6.02-2.44 3.68-3.45 6.24-3.94 9.94a12.52 12.52 0 01-.47 2.35c-.12.23-.22 1.3-.22 2.36 0 2.17.42 3.25 2.5 6.31 1.34 2 6.91 7.27 9.83 9.31a51.38 51.38 0 0011 5.37c.54.16 3.6 1.47 6.79 2.9 5.75 2.59 6.5 2.84 12.83 4.3 1.22.29 3.72.63 5.56.77 1.85.14 3.4.3 3.46.36.26.26 8.85.07 11.95-.27zm67.6-2.45c.17-.07.38-.06.46.02.08.08-.06.14-.32.13-.28-.01-.34-.07-.15-.15zm21.56-9.42c.14-.2.68-1.25 2.66-3.92 3.63-4.92 5.35-9.2 5-12.5-.3-2.87-3.2-8.39-5.84-11.08-1.07-1.1-2.54-2.27-2.22-2.27.25 0 1.58.66 1.5.54-.08-.13-.97-.76-.64-.6.8.41 3.87 3.3 4.9 4.93 4.4 6.93 4.63 10.84 1 17.48a69.56 69.56 0 01-5.47 7.85c-.55.63-1.66.75-1.41.38zm-34.32-28.54a3.36 3.36 0 01-1.45-.36c-.07-.07 1.96-.24 4.51-.2 2.55.04 6-.59 5.18-.04-.43.28-4.73.75-4.99.74zM55.08 131.08c-.52-1.34.35-5.33 2.12-9.79a27.63 27.63 0 001.12-3.13c0-.18.43-1.17.97-2.2.53-1.03.96-2.02.96-2.21 0-.45 2.83-4.76 4.15-6.33.7-.82 1.42-1.4 2.14-1.67.6-.23 1.13-.45 1.17-.48a3.2 3.2 0 00-.54-.98c-.79-1.15-3.49-5.34-2.72-5.34.33 0 3.3 3.91 3.3 4.04 0 .76 3.26 4.2 4.71 4.97.27.14 1.8 1.01 3.4 1.93 3.24 1.87 3 1.77 8.82 3.74 5.09 1.72 7.12 2.06 13.78 2.27 2.73.1 5.72.27 6.65.4 4.68.64 13.79 1.08 14.04.68.07-.12.93-.21 1.91-.2 2.34 0 3.92-.24 4.83-.77.91-.52 4.66-1.85 6.17-2.17 1.1-.24 7.03-2.56 9.81-3.85.8-.36 2.87-1.13 4.6-1.7a35.6 35.6 0 003.86-1.45c.4-.23 1.55-.66 2.55-.95 1-.3 3-1.03 4.47-1.63 3.99-1.65 5.42-2.76 6.46-5 .46-1 .55-1.6.55-3.62 0-2.26-.05-2.5-.81-3.98a47.2 47.2 0 00-5.38-7.58 8.9 8.9 0 00-5.99-2.92c-.85-.06-1.72-.15-1.93-.22-1.18-.36-7.18-.85-10.45-.85-3.73 0-3.8 0-7.56 1.07a53.18 53.18 0 01-6.75 1.45c-1.63.2-4.05.53-5.38.73-3.39.48-11.21.67-15.21.37-5-.39-7.16-.92-12.48-3.09-2.2-.9-2.35-1.01-3.43-2.48-.62-.86-1.4-1.83-1.72-2.16-.64-.65-1.7-3.53-2.22-6.03-.36-1.68-.18-8.33.34-13.02.37-3.37.85-5.19 1.83-6.98.18-.34.55-1.14.82-1.77a15 15 0 013.1-4.18c.44-.43.8-.93.8-1.1 0-.18-.71-.57-1.57-.87a24.36 24.36 0 01-5.84-3.22c-1.43-1.05-3.48-3.35-3.48-3.9 0-.64.47-.72.7-.13.38.94 3.23 3.7 4.67 4.53 3.05 1.74 4.2 2.25 5.99 2.68 1.12.26 2.53.65 3.14.85 3.04 1.03 14.35.93 16.46-.15a4.8 4.8 0 011.26-.48c.17 0 1.38-.7 2.7-1.57 1.3-.86 2.61-1.56 2.9-1.55.5 0 2.4.47 9.22 2.26 3.05.8 3.84.92 7.98 1.1 5 .23 10.69-.11 14.15-.86 2.2-.48 4.72-1.71 6.57-3.2 1.78-1.45 1.82-2.2.1-2.2-.29 0-.64-.11-.77-.24a15.4 15.4 0 00-3.4-1.94c-.17 0-.81.38-1.4.83a6.2 6.2 0 01-2.49 1.11c-.77.16-1.5.37-1.64.48-.32.25-2.37.44-6.67.62-2.9.12-4.17.06-7.06-.36a61.9 61.9 0 01-3.85-.63 26.4 26.4 0 00-2.13-.45c-3.11-.57-7.97-2.31-7.98-2.86 0-.25.64-.23 1.15.03 1.23.62 2.97 1.27 3.93 1.45.6.11 1.96.42 3.02.69a36.02 36.02 0 0011 1.38c6.98 0 10.86-.75 13.02-2.52.89-.73 1.5-.93 1.5-.5 0 .14.52.52 1.15.86.63.34 1.47.82 1.87 1.06.4.24 1.24.5 1.86.59 1.1.14 1.15.11 1.67-.72.48-.78.52-1.08.4-3.2-.11-2-.24-2.55-.86-3.71-.4-.75-.77-1.5-.83-1.67-.09-.25-.28-.22-.85.1-1.05.6-1.69.53-2.52-.3-.67-.66-.72-.83-.58-1.79l.16-1.05-1.28-.74c-.7-.4-1.93-1.25-2.73-1.9-1.55-1.24-2.4-1.7-4.8-2.58a93.26 93.26 0 01-7.04-2.76l-1.43-.67.73-.26c.6-.2.99-.17 2.64.42 5.14 1.81 9.3 3.57 10.05 4.31.21.22.64.55.94.75.3.2.83.59 1.18.86.35.28 1.18.81 1.84 1.19 2.18 1.24 4.96 3.57 4.96 4.15 0 .18.08.32.18.32.61 0 1.64 4.46 1.57 6.83-.07 2.74-2.74 5.67-7.2 7.9a19.3 19.3 0 00-2.16 1.2c-.12.13-.64.23-1.14.23-.5 0-2.08.19-3.52.42-2 .32-4.06.42-8.77.42-6.55 0-8.52-.24-11.6-1.4-.74-.26-2.15-.68-3.15-.91l-3.34-.8-1.53-.39-1.5 1.02c-1.82 1.23-5.23 2.76-6.84 3.06-2.47.47-5.2.54-9.77.28-2.6-.15-5.35-.44-6.13-.64l-1.41-.36-.64.69a20.54 20.54 0 00-4.27 6.16 22.96 22.96 0 00-1.42 3.9c-.52 2.39-.9 7.07-.96 11.58-.04 3.44.02 4.06.52 5.65.61 1.94.7 2.1 2.65 5.01l1.33 1.98 2.93 1.32c4.95 2.22 7.7 2.77 14.78 2.98 7.66.21 17.6-.85 23.1-2.49 1.66-.49 3.56-.98 4.22-1.08 2.5-.39 7.48-.23 12.94.4 6.72.77 7.79 1.14 10.15 3.48 1.94 1.91 5.25 6.55 6.2 8.68.63 1.42.7 1.82.7 4.1-.02 2.12-.11 2.75-.6 3.86a8.86 8.86 0 01-1.05 1.87l-.48.54.82.33c1.29.51 6.38 2.44 9.05 3.42 3.02 1.1 4.02 1.69 6 3.5 1.76 1.61 3.92 4.94 5.11 7.91.6 1.49 1.7 3.06 1.41 3.24-.58.37-1.8-1.1-2.72-3.23-.94-2.15-3.28-6-3.65-6-.12 0-.22-.15-.22-.34 0-.51-2.71-3.03-3.27-3.03-.5 0-5.16-1.65-10.34-3.64-1.7-.66-3.3-1.2-3.57-1.2s-1.05.33-1.75.72c-1.61.9-5.83 2.58-7.01 2.8-.5.09-.9.26-.9.37 0 .12-.26.22-.57.22-.75 0 .64-.54.64-.28 0 .11-3.87 1.53-4.37 1.6-.5.09-1.26.31-1.7.5-.44.2-1 .35-1.27.35-.26 0 .47-.18.47-.06 0 .11-1.25.56-1.61.66-.37.09-2.1.8-3.87 1.6a79.46 79.46 0 01-7.13 2.65 77.9 77.9 0 00-5.5 1.91 18.69 18.69 0 01-5.93 1.56 86 86 0 01-12.9-.22c-1.82-.2-5.7-.48-8.63-.63-5.94-.3-10.16-.75-10.94-1.16-.28-.16-.79-.28-1.13-.28-.34 0-.62-.1-.62-.2 0-.26-4.06-1.49-4.92-1.49-.36 0-.64-.1-.64-.24 0-.13.48.07.3.07-1.21 0-8.7-3.92-11.06-5.8-1.75-1.4-2.27-1.5-3.9-.83-1.08.44-3.98 3.55-4.33 4.63-.1.33-.44.98-.75 1.44-.3.47-.63 1.31-.72 1.88-.09.56-.26 1.02-.37 1.02-.3 0-1.3 2.06-1.76 3.6-.21.73-.5 1.39-.63 1.47-.73.45-2.49 7.25-2.38 9.18.08 1.33.08 3.25-.4 3.25-.29 0-.62-2-.7-2.2zm9.14-31.88c-.44-.3-1.91-3-2.46-4.52a39.9 39.9 0 01-1.5-6.63c0-.32-.65-5.24-.35-5.24.38 0 1.33 5.02 1.55 6.14.73 3.72 1.12 4.96 2.33 7.39.71 1.44 3.26 5.48 3.26 5.6 0 .25-2.47-2.5-2.83-2.74zm-31.5-15.51l-2.1-2.18-2.9 1.08-2.9 1.08-7.61-7.58-7.62-7.58 1.93-1.93 1.93-1.94-1.75-1.74-1.74-1.74-1.4 1.38-1.4 1.39-1.08-1.1L5 61.74l3.93-3.91 3.92-3.91 1.1 1.09 1.08 1.09-1.33 1.3-1.33 1.32 1.74 1.76 1.75 1.76 1.95-1.93 1.94-1.93 7.58 7.56 7.58 7.56-1 2.74c-.54 1.5-.99 2.85-.99 3 0 .14.88 1.12 1.96 2.18 2.17 2.13 2.54 2.76 2.12 3.56-.37.7-.68.88-1.5.89-.57 0-1.1-.41-2.79-2.18zm-4.63-4.3l1.81-.68.72-2.08.73-2.09-1.69-1.7-1.68-1.68-2.85 2.83-2.84 2.83 1.62 1.63c.9.9 1.8 1.63 2 1.62a15 15 0 002.18-.69zm-5.44-13.53l-3.03-3.02-2.84 2.83-2.83 2.83 3.01 3.02 3.02 3.02 2.85-2.84 2.84-2.83zm-4.06 3.9l-1.14-1.15 1.15-1.14 1.16-1.14 1.14 1.16 1.14 1.15-1.16 1.14-1.15 1.14zm41.17 12.77c-.25-4.35-.37-8.1-.5-9.93-.17-2.29-.24-2.8.25-2.68.63.16.72 1.62.95 8.04.14 4.17.61 8.79.22 8.89-.23.06-.92-4.23-.92-4.32zm-.77-15.9c-.14-4.65.62-12.61 1.58-16.46.73-2.9 1.11-3.83 3.55-8.68a69.8 69.8 0 012.94-5.5c.11-.05.2-.2.2-.32s.2-.52.46-.88c.75-1.1 2.8-4.47 3.18-5.24.2-.4.46-.84.6-1 .13-.14.4-.5.6-.8.2-.3.56-.76.79-1.03.23-.28.42-.57.42-.65 0-.09.45-.64 1-1.23.54-.6 1.44-1.67 1.99-2.4 1.23-1.64 3.07-3.62 3.34-3.62.12 0 1-.77 1.95-1.72 1.72-1.68 3.55-3.1 4.01-3.1.13 0 .3-.15.36-.33.07-.17.76-.56 1.54-.85.77-.3 1.8-.79 2.26-1.1.47-.3 1.83-.86 3.03-1.22 1.19-.37 2.62-.87 3.18-1.11a22.3 22.3 0 013.02-.92c7.94-1.86 7.18-1.75 14.1-1.97 3.6-.12 6.7-.16 6.9-.1.2.06 1.6.27 3.1.46 1.52.2 2.88.46 3.03.57.81.61 2.66.99 5.21 1.06 1.91.06 2.7.21 2.87.35l.41.33c.13.1.7.43 1.17.95.61.67.9 1.26 1.03 2.07.14.96.32 1.06.86 1.37 3.18 1.81 1.4 1.24.15 1.24-1.15 0-2.11-.79-2.11-2.1 0-.59-.24-1-.96-1.71a5.27 5.27 0 00-5.42-1.32c-.84.23-1.1.18-2.54-.5-.88-.43-2.31-.88-3.18-1-.86-.12-2.22-.33-3.02-.46-2.37-.4-13.56.1-15.96.7-1.06.27-2.75.66-3.75.88-2.69.6-9.2 2.8-10.1 3.41-.45.3-1.32.7-1.94.88-1.27.38-4.32 2.47-6.34 4.36-.73.68-1.8 1.62-2.38 2.08-.58.47-1.66 1.65-2.4 2.64-.75 1-1.8 2.3-2.34 2.92-.54.62-1.14 1.33-1.34 1.59a19.13 19.13 0 00-2.66 3.93c-.43.86-.97 1.84-1.2 2.18a53.07 53.07 0 00-3.65 6.28 16.49 16.49 0 01-1.46 2.61c-.12.05-.88 1.39-1.69 2.99a18.8 18.8 0 00-1.96 5.22A77.88 77.88 0 0060 65.91c.02 3.35.3 5.99-.56 5.67-.4-.14-.35-2.34-.44-4.94zm47.45-27.29c-1.73-.94-2.17-3.16-.97-4.84.27-.38.49-.77.49-.87 0-.22 1.95-2.6 2.23-2.71.32-.14.2-1-.14-1-.84 0-3.37-2.48-3.5-3.43-.03-.19.09.02 0-.08-.25-.24-.55-2.99-.29-3.15.12-.07.08.28 0 .03-.12-.35 1.09-2.16 1.12-2.1.18.35.02.28-.07.28-.28 0 .97-1.21 1.74-1.69 3.1-1.91 7.28-.08 8.24 3.6.78 3.02-1.4 6.14-4.76 6.8-.78.15-1.43.37-1.43.5a19 19 0 00.97 2.25c1.06 2.22 1.23 3.6.64 5.02-.65 1.55-2.73 2.23-4.27 1.4zm3.34-.64c.46-.32.53-.6.53-1.92 0-1.26-.14-1.85-.77-3.12-.43-.87-.9-1.58-1.05-1.58-.36 0-1.37 1.11-2.14 2.35-.9 1.46-.9 3.44 0 4.15.78.61 2.63.68 3.42.12zm-1.17-10.83c.64-.77-.3-1.95-1.14-1.43-.84.53-.54 1.78.42 1.78.24 0 .56-.15.72-.35zm3.37-2.4c.38-.2.82-.7 1-1.11.67-1.62-1.06-3.31-2.69-2.64-1.06.44-1.6 1.64-1.19 2.64.3.72 1.22 1.42 1.89 1.44.17 0 .62-.15 1-.34zm34.68 3c-1.4-.85-1.34-2.6.12-3.45.67-.4.9-.42 1.5-.17 1.84.76 1.88 2.9.08 3.83-.7.36-.8.35-1.7-.2z" clip-path="url(#t)" transform="translate(0 -.02)"/>
    <path fill="none" d="M40.48 4.54h169.27v184.62H40.48z"/>
    <path fill="none" d="M40.48 4.54h169.27v184.62H40.48z"/>
  </g>
  <path fill="none" d="M11.17 307.12h86.55v37.7H11.17z"/>
</svg>
